<?xml version="1.0" standalone="no"?>
<!DOCTYPE svg PUBLIC "-//W3C//DTD SVG 20010904//EN"
 "http://www.w3.org/TR/2001/REC-SVG-20010904/DTD/svg10.dtd">
<svg version="1.0" xmlns="http://www.w3.org/2000/svg"
 width="1024.000000pt" height="1024.000000pt" viewBox="0 0 1024.000000 1024.000000"
 preserveAspectRatio="xMidYMid meet">

<g transform="translate(0.000000,1024.000000) scale(0.100000,-0.100000)"
fill="#000000" stroke="none">
<path d="M4324 10121 c-2 -2 -4 -33 -4 -68 l0 -64 -325 3 -325 3 0 -62 0 -63
-155 0 -155 0 0 -70 0 -70 -170 0 -170 0 0 -65 0 -65 -95 0 -95 0 0 -60 0 -60
-125 0 -125 0 -2 -42 c-1 -24 -2 -55 -1 -70 l1 -28 -74 0 -74 0 7 -60 6 -60
-121 0 -122 0 -6 -26 c-4 -14 -4 -43 -1 -65 l5 -39 -69 0 -69 0 0 -65 0 -65
-115 0 -115 0 0 -65 0 -64 -62 -3 -63 -3 3 -49 c3 -66 -8 -76 -83 -76 l-62 0
-7 -37 c-3 -21 -6 -50 -6 -65 0 -27 -2 -28 -53 -28 l-54 0 -9 -72 -9 -73 -53
-1 c-29 -1 -55 -4 -59 -8 -4 -4 -6 -26 -5 -49 3 -60 -8 -71 -75 -77 l-58 -5
-5 -110 -5 -110 -57 -3 -57 -3 -7 -45 c-3 -24 -4 -53 -1 -64 4 -17 -1 -19 -52
-22 l-56 -3 -3 -67 -3 -67 -67 -3 c-77 -3 -69 14 -71 -163 l-1 -100 -65 3 -65
4 0 -131 0 -131 -60 0 -60 0 0 -97 c0 -54 -3 -115 -7 -136 l-6 -38 -52 2 c-28
1 -57 -1 -63 -5 -9 -5 -12 -60 -12 -192 l0 -184 -70 0 -70 0 0 -325 0 -325
-65 0 -65 0 0 -850 0 -850 65 0 65 0 0 -325 0 -325 70 0 70 0 2 -187 3 -188
61 -3 61 -3 7 -46 c3 -25 6 -88 6 -139 l0 -94 65 0 65 0 0 -120 0 -120 60 0
60 0 0 -53 c0 -30 3 -88 6 -129 l7 -74 58 4 59 4 2 -33 c1 -19 2 -45 3 -59 1
-24 4 -25 63 -28 l62 -3 0 -89 c0 -100 -5 -94 81 -90 l36 1 9 -118 9 -118 63
3 62 4 0 -66 0 -66 59 0 60 0 6 -53 c4 -29 5 -61 3 -72 -3 -16 3 -18 59 -16
l62 2 3 -63 3 -63 60 0 60 0 7 -50 c5 -27 9 -58 10 -67 2 -18 7 -19 88 -22
l35 -1 3 -67 3 -68 88 0 c49 0 103 -3 120 -6 l32 -7 -3 -60 -3 -59 65 -2 65
-1 3 -63 3 -62 102 -1 c56 -1 110 -1 120 0 15 2 17 -7 17 -68 l0 -71 60 0 60
0 0 -55 0 -54 143 -3 142 -3 3 -62 3 -63 79 0 80 0 0 -60 0 -60 160 0 160 0 0
-65 0 -65 170 0 170 0 0 -65 0 -65 326 0 325 0 -2 -62 -3 -63 803 -3 802 -2
-3 62 -3 63 328 3 327 2 0 65 0 65 165 0 164 0 3 62 3 63 158 3 157 3 0 59 0
60 85 0 84 0 3 63 3 62 133 3 132 3 0 59 0 60 75 0 75 0 0 65 0 65 120 0 120
0 0 65 0 65 60 0 59 0 3 68 3 67 115 5 115 5 3 63 3 63 53 -2 c29 -1 57 1 63
4 7 4 10 32 8 69 l-3 63 66 0 67 0 3 63 3 62 59 0 c88 0 90 2 90 76 l0 64 61
0 62 0 -6 51 c-9 74 2 89 67 89 l54 0 4 100 c2 54 7 102 11 106 4 4 31 9 61
12 l53 4 7 81 c4 46 12 85 19 89 7 4 33 8 59 8 l47 0 3 58 3 57 50 1 c28 1 56
2 63 3 9 1 12 34 12 131 l0 130 29 0 c16 0 43 3 60 6 29 6 31 9 31 54 0 26 3
75 6 109 l7 61 58 0 59 0 0 48 c0 27 3 90 6 140 l7 92 48 0 c82 0 79 -6 80
159 0 80 3 164 7 186 l7 40 60 0 60 0 3 322 2 322 56 3 55 3 -1 839 c0 461 -3
843 -6 847 -3 5 -30 9 -60 9 l-54 0 0 325 0 325 -75 0 -75 0 -2 193 -3 192
-57 3 -58 3 0 129 0 130 -64 0 -63 0 -8 130 -7 130 -58 0 -58 0 -7 130 -7 130
-60 0 -59 0 2 58 c1 32 -1 64 -5 70 -4 7 -31 12 -62 12 l-54 0 0 65 0 65 -60
0 -60 0 0 115 0 115 -62 0 c-35 0 -68 4 -75 8 -6 4 -13 34 -15 67 l-3 59 -51
-3 -51 -2 -7 47 c-3 26 -6 60 -6 75 0 29 0 29 -65 29 l-65 0 0 65 0 64 -62 3
-63 3 -3 63 -3 62 -64 0 -65 0 0 65 0 65 -120 0 -120 0 0 65 0 65 -65 0 -65 0
0 65 0 65 -115 0 -115 0 0 60 c0 55 -2 60 -22 61 -13 1 -27 1 -32 0 -6 -1 -32
1 -58 4 l-48 7 0 64 0 64 -125 0 -124 0 -3 58 -3 57 -92 3 -93 3 0 65 0 65
-160 -3 -160 -3 0 70 0 70 -157 0 -158 0 0 60 0 60 -330 5 -330 5 0 65 0 65
-793 0 c-437 0 -796 -2 -798 -4z m1456 -186 l0 -65 335 0 335 0 0 -75 0 -75
185 0 185 0 -2 -57 -1 -58 -6 50 -6 50 -45 1 c-39 1 -40 1 -7 -3 20 -2 37 -5
38 -6 0 -1 3 -23 6 -49 4 -39 2 -47 -14 -51 -13 -4 -11 -6 7 -5 14 0 90 0 170
-1 l145 -1 -3 -65 -4 -65 114 -2 c96 -1 103 -2 48 -7 l-65 -6 46 -13 c31 -9
46 -19 46 -30 0 -42 2 -45 18 -32 13 11 14 10 9 -3 -3 -9 -1 -24 5 -34 8 -14
10 -2 11 51 0 80 8 85 11 8 l3 -52 125 -2 126 -2 -115 -6 c-103 -5 -107 -6
-37 -8 42 -1 76 -5 76 -9 -4 -24 4 -33 27 -33 24 0 25 -3 21 -35 -3 -19 0 -38
5 -41 7 -5 9 14 6 55 -2 33 -1 61 4 61 4 0 8 -25 8 -55 l0 -55 75 0 75 0 0
-65 0 -65 105 0 105 0 0 -65 0 -65 79 0 79 0 7 -65 7 -65 84 0 c82 0 84 -1 84
-24 0 -13 3 -39 6 -57 5 -26 4 -31 -5 -23 -7 6 -13 29 -14 52 l-1 41 -51 -6
c-61 -7 -71 -13 -22 -13 26 0 37 -4 37 -15 0 -8 -5 -15 -11 -15 -5 0 -7 5 -4
10 3 6 0 10 -8 10 -10 0 -13 -7 -10 -19 3 -13 12 -18 24 -16 10 2 19 0 19 -6
0 -5 -7 -9 -15 -9 -9 0 -12 -6 -8 -16 4 -11 9 -12 16 -5 6 6 16 11 22 11 5 0
4 -4 -4 -9 -13 -8 -13 -12 0 -27 9 -11 9 -15 2 -10 -9 4 -13 1 -13 -9 0 -11 5
-15 16 -11 8 3 13 2 10 -3 -3 -5 1 -11 8 -14 16 -6 40 16 29 26 -3 4 1 7 10 7
9 0 17 -5 17 -11 0 -5 5 -7 11 -3 7 4 7 -1 -1 -16 -10 -18 -14 -20 -21 -9 -6
10 -11 11 -20 2 -18 -18 -2 -34 26 -23 26 10 42 -9 22 -29 -8 -8 -6 -11 7 -11
18 0 49 -24 41 -32 -3 -3 9 -3 25 0 25 4 29 1 24 -13 -6 -13 -9 -14 -16 -3 -8
10 -9 10 -6 -1 2 -8 13 -15 24 -16 46 -3 83 -29 87 -60 2 -16 5 0 5 38 l2 67
-62 0 -63 0 -1 62 c0 37 3 54 7 42 4 -10 8 -36 8 -56 l1 -38 60 0 60 0 1 -55
c1 -30 2 -61 3 -67 1 -9 24 -14 69 -16 l67 -3 0 -54 c0 -82 3 -85 76 -85 l64
0 0 -60 0 -59 63 -4 62 -3 -70 -2 -70 -2 2 60 1 60 -61 -1 c-34 -1 -54 -3 -44
-6 9 -2 17 -9 17 -14 0 -6 8 -5 20 1 16 9 22 8 26 -5 3 -8 10 -13 14 -10 5 3
11 2 14 -3 2 -4 -4 -9 -15 -9 -12 -1 -19 5 -19 15 0 14 -2 15 -10 2 -5 -8 -6
-17 -1 -20 13 -9 8 -51 -6 -46 -7 3 -14 2 -17 -2 -3 -4 5 -9 16 -9 30 -3 57
-31 51 -54 -3 -11 0 -19 6 -19 7 0 9 5 6 10 -3 6 -1 10 5 10 7 0 9 7 6 16 -3
8 -2 12 4 9 6 -3 10 -18 10 -33 0 -23 1 -24 13 -8 12 16 13 16 14 -1 2 -60 8
-93 16 -93 5 0 7 6 4 13 -3 8 1 14 8 14 7 0 11 -6 8 -14 -3 -7 2 -13 10 -13
10 0 17 -12 20 -32 2 -18 4 11 4 65 0 54 3 100 5 103 7 7 20 -195 13 -205 -5
-9 32 -27 47 -23 3 1 12 -5 18 -13 10 -12 10 -18 1 -29 -9 -11 -9 -16 -1 -21
7 -4 10 -15 7 -26 -3 -10 3 -25 13 -34 16 -15 18 -13 24 34 4 28 4 62 0 76 -5
22 -11 25 -50 25 -24 0 -44 5 -44 11 0 17 105 7 106 -11 1 -8 2 -41 2 -72 l2
-58 60 0 60 0 0 -80 0 -80 54 0 c65 0 66 -2 66 -137 l0 -93 58 0 57 0 2 -127
c2 -69 5 -128 8 -131 3 -3 34 -4 70 -3 l65 2 0 -135 0 -136 60 0 60 0 0 -169
c0 -93 3 -183 6 -200 6 -30 8 -31 64 -31 l57 0 6 -107 c4 -58 7 -202 7 -320
l0 -213 60 0 60 0 0 -715 0 -715 -60 0 -60 0 0 -315 0 -315 -49 0 c-27 0 -57
-3 -67 -7 -12 -4 -15 -3 -10 5 4 7 31 12 60 12 l54 0 -2 63 c0 34 -5 65 -11
69 -6 5 -5 8 3 8 9 0 12 64 12 287 0 285 0 286 20 268 19 -17 19 -19 2 -32 -9
-8 -11 -12 -4 -8 6 3 12 2 12 -4 0 -5 -6 -12 -13 -14 -6 -3 14 -6 46 -6 l57
-1 0 705 0 705 -56 0 c-30 0 -53 -4 -50 -9 3 -4 26 -6 51 -4 l45 5 0 -665 c0
-366 -4 -668 -8 -671 -4 -2 -7 25 -7 61 0 35 -3 67 -8 70 -4 2 -5 9 -2 14 7
10 -6 12 -29 3 -12 -5 -13 -9 -3 -19 7 -7 15 -11 19 -9 4 3 6 -5 5 -16 -1 -13
-7 -19 -17 -17 -8 2 -14 9 -12 15 2 12 -4 22 -36 57 -8 10 -9 16 -1 20 7 5 8
10 0 18 -7 7 -5 14 7 23 14 10 15 15 4 26 -11 11 -12 10 -6 -7 4 -11 4 -17 0
-14 -11 10 -16 50 -5 44 13 -9 11 9 -3 24 -11 10 -9 11 7 5 17 -7 18 -6 7 8
-7 8 -10 24 -6 34 5 15 4 16 -4 5 -14 -19 -42 -23 -35 -5 3 8 9 14 14 14 5 0
9 5 9 11 0 6 -7 9 -15 5 -9 -3 -15 0 -15 10 0 9 9 18 20 21 11 3 17 10 14 15
-4 6 0 14 7 19 11 7 11 9 1 9 -8 0 -10 5 -6 13 6 9 4 9 -8 -1 -14 -11 -16 -10
-11 7 3 12 1 21 -6 21 -6 0 -11 5 -11 12 0 9 3 9 12 0 7 -7 15 -12 18 -12 9 0
6 43 -3 57 -4 7 -4 20 1 29 6 11 11 13 16 5 9 -14 26 -15 26 -1 0 6 -6 9 -12
8 -8 -2 -12 6 -10 20 3 23 3 23 -16 5 -10 -10 -17 -21 -15 -25 2 -4 -1 -9 -6
-12 -13 -8 -7 24 5 32 6 4 13 15 17 25 5 12 1 17 -12 17 -10 0 -21 9 -24 20
-5 21 -27 28 -27 9 0 -5 -4 -8 -9 -4 -5 3 -13 0 -17 -6 -4 -7 -3 -9 4 -5 6 3
13 3 16 -2 2 -4 -4 -9 -15 -9 -18 -2 -19 6 -19 93 0 52 3 94 8 94 11 0 32 52
25 64 -3 6 -3 8 2 4 4 -4 14 0 21 10 12 15 14 14 14 -13 0 -3 -2 -4 -5 -2 -8
4 -38 -44 -31 -50 3 -3 -2 -11 -10 -18 -22 -16 -2 -57 24 -49 15 5 16 4 1 -8
-20 -16 -33 -54 -24 -68 5 -8 11 -8 20 0 10 8 19 8 34 0 17 -9 21 -8 21 5 0 8
-6 15 -12 15 -7 0 -21 7 -31 14 -15 12 -15 14 -2 19 8 4 14 1 12 -5 -1 -7 7
-14 18 -16 11 -2 23 -9 26 -14 4 -6 10 -1 14 11 7 22 20 27 29 12 4 -5 0 -11
-6 -14 -10 -3 -10 -9 0 -27 12 -20 12 -22 -3 -17 -10 4 -14 3 -9 -4 4 -8 -1
-9 -15 -4 -13 4 -21 2 -21 -5 0 -6 -4 -8 -10 -5 -5 3 -10 1 -10 -4 0 -12 13
-14 24 -4 6 6 19 9 63 15 9 1 9 5 3 13 -5 7 -6 16 -2 20 4 5 1 5 -5 1 -15 -8
-18 10 -3 19 6 3 13 -1 16 -9 7 -18 24 -12 24 8 0 8 -8 13 -17 12 -11 0 -17 5
-15 14 10 43 10 51 0 48 -7 -3 -14 -10 -16 -18 -3 -8 0 -10 9 -5 8 5 10 4 6 0
-4 -5 -14 -10 -22 -11 -11 -2 -12 3 -4 23 5 14 7 28 5 30 -8 8 -27 -8 -21 -18
3 -5 -5 -21 -19 -36 -15 -15 -26 -22 -26 -15 0 6 6 12 13 12 8 0 7 4 -3 10
-15 9 -13 11 13 14 6 0 12 14 12 29 0 30 20 48 43 40 10 -4 9 0 -4 15 -22 26
-25 27 -17 5 4 -11 3 -14 -5 -9 -7 4 -12 16 -12 28 0 16 5 19 25 16 20 -4 23
-3 14 8 -6 8 -15 11 -20 8 -5 -3 -9 -2 -8 3 3 19 -2 34 -10 29 -11 -7 -21 17
-21 47 0 30 -36 53 -56 36 -12 -10 -13 -9 -9 4 4 8 2 18 -4 22 -7 4 -11 -3
-11 -16 0 -12 -2 -20 -5 -17 -3 3 -7 73 -10 156 -4 117 -2 152 8 152 8 0 7 4
-3 10 -10 6 -11 10 -2 10 6 0 12 3 12 8 0 4 -27 5 -60 4 -60 -4 -60 -4 -61 25
0 15 -2 121 -5 236 l-6 207 25 0 c26 0 40 20 31 44 -3 8 0 17 6 21 14 8 11
-53 -2 -72 -5 -6 -5 -14 2 -18 6 -4 7 -13 1 -23 -13 -25 -12 -105 2 -114 9 -6
9 -8 0 -8 -7 0 -13 -7 -13 -16 0 -8 4 -13 10 -9 5 3 4 -8 -2 -26 -9 -27 -8
-34 5 -44 21 -15 22 -26 2 -19 -12 5 -15 -2 -15 -31 0 -25 4 -34 12 -29 7 5 8
3 3 -7 -16 -25 -13 -49 6 -49 10 0 21 -4 24 -10 3 -6 -1 -7 -9 -4 -22 9 -20
-9 4 -31 19 -17 20 -17 20 0 0 15 3 16 12 7 15 -15 45 -15 54 0 5 7 3 8 -5 3
-8 -4 -18 1 -27 14 -9 12 -20 19 -25 16 -5 -4 -9 -3 -10 2 0 4 -2 20 -4 36 -3
21 1 27 14 27 10 0 24 7 31 15 11 14 10 14 -13 6 -15 -6 -29 -6 -32 -1 -9 14
17 60 34 61 11 0 12 2 3 6 -7 3 -19 0 -27 -7 -11 -9 -12 -7 -8 9 3 12 1 21 -6
21 -6 0 -11 5 -11 11 0 5 4 7 10 4 6 -3 7 1 4 9 -3 9 -10 13 -15 10 -5 -3 -9
2 -9 11 0 9 5 13 10 10 9 -6 14 8 11 29 -1 4 4 15 11 24 10 12 10 16 1 19 -7
3 -13 9 -13 14 0 13 27 11 36 -3 4 -6 3 -8 -4 -5 -6 5 -8 -1 -4 -15 5 -21 6
-21 12 -2 4 10 5 25 2 33 -4 10 -1 12 9 6 11 -6 12 -5 2 6 -7 7 -14 24 -14 39
-1 24 -2 23 -9 -5 l-8 -30 -1 31 c-1 21 5 34 15 38 14 5 14 9 3 24 -13 15 -12
16 4 3 12 -10 20 -11 30 -2 10 8 14 7 14 -4 0 -7 -3 -14 -6 -13 -20 2 -31 -3
-26 -12 3 -5 12 -7 19 -4 16 6 17 -57 1 -68 -6 -4 -2 -8 8 -8 15 0 17 12 17
110 l0 110 -49 0 c-86 0 -81 -12 -81 206 l0 194 -70 0 c-38 0 -70 -4 -70 -8 0
-5 25 -8 55 -7 59 1 80 -11 72 -42 -4 -14 -5 -14 -6 4 0 12 -5 25 -11 28 -6 4
-7 -1 -3 -11 4 -10 2 -15 -3 -11 -6 3 -16 2 -24 -4 -10 -5 -11 -9 -3 -9 7 0
10 -6 7 -14 -4 -11 1 -14 20 -12 14 2 26 -1 26 -5 0 -5 -6 -9 -12 -9 -10 0
-10 -2 0 -8 8 -6 11 -28 10 -64 -2 -31 -6 -54 -11 -51 -4 2 -4 9 -1 15 4 6 3
8 -2 5 -5 -3 -9 -18 -8 -34 1 -15 3 -34 3 -41 1 -7 6 -10 11 -7 15 9 12 -48
-2 -64 -8 -8 -8 -11 -2 -8 8 4 14 -6 18 -26 5 -29 10 -33 34 -32 18 2 20 1 5
-2 -19 -4 -21 -8 -13 -24 7 -13 7 -19 0 -19 -5 0 -10 7 -10 15 0 8 -5 15 -11
15 -6 0 -9 -7 -6 -14 4 -9 -2 -17 -13 -21 -11 -4 -17 -12 -13 -21 3 -7 0 -14
-7 -14 -9 0 -10 -3 -1 -13 8 -10 7 -14 -4 -14 -17 0 -20 22 -5 32 5 3 6 13 3
21 -5 13 -7 13 -14 2 -7 -10 -9 -9 -9 3 0 9 6 22 14 28 16 13 18 51 3 51 -5 0
-7 -9 -4 -20 3 -11 1 -18 -4 -14 -5 3 -9 15 -9 27 0 18 -2 19 -11 7 -8 -11 -9
-4 -7 28 2 23 0 42 -4 42 -5 0 -8 8 -9 18 0 14 -2 14 -8 -3 -5 -11 -3 -30 2
-43 8 -18 8 -26 -4 -33 -8 -5 -9 -9 -2 -9 7 0 10 -12 8 -30 -2 -16 0 -32 6
-35 5 -4 9 6 9 21 0 38 6 27 13 -23 5 -39 3 -43 -16 -43 -19 -1 -20 -2 -5 -10
14 -9 17 -34 17 -213 1 -111 4 -223 7 -249 l7 -48 48 0 49 0 -2 -717 -3 -718
-52 3 -52 3 2 -260 2 -259 -50 5 c-37 3 -46 2 -35 -6 13 -10 13 -11 0 -11 -13
0 -13 -2 -1 -9 11 -7 12 -13 4 -23 -6 -7 -13 -24 -16 -38 -5 -22 -5 -22 -5 5
0 17 -1 41 -2 55 -5 60 -19 -61 -19 -160 1 -58 1 -125 0 -150 l-1 -45 -45 -1
c-25 -1 -48 -3 -50 -5 -2 -2 -5 -54 -6 -114 -3 -156 -8 -185 -28 -185 -13 0
-14 2 -2 9 10 6 -1 8 -30 4 -24 -3 -47 -11 -52 -17 -4 -6 -7 -33 -6 -61 0 -27
0 -77 0 -110 l-1 -60 -60 3 c-33 2 -60 2 -60 0 -1 -3 -8 -104 -14 -193 -2 -30
-2 -30 -63 -30 -55 0 -60 -2 -52 -17 6 -11 6 -18 0 -18 -5 0 -12 6 -14 13 -3
6 -6 -18 -6 -55 -1 -63 -3 -68 -23 -69 -13 0 -39 -1 -58 -2 l-35 -2 -9 -122
-9 -123 -52 0 -52 0 -9 -72 -9 -73 -51 2 -52 2 -6 -37 c-3 -20 -6 -50 -6 -67
l0 -30 -59 3 -58 4 -8 -66 -7 -66 -38 0 c-50 0 -70 -8 -63 -26 3 -8 0 -14 -7
-14 -7 0 -10 -14 -9 -37 3 -33 1 -38 -16 -36 -11 2 -36 0 -56 -3 l-37 -5 -7
-64 -6 -64 -57 -3 -57 -3 -3 -40 c-5 -84 -5 -84 -80 -87 l-67 -3 -5 -70 -5
-70 -116 -3 -117 -3 -7 -54 c-3 -30 -4 -59 0 -65 4 -6 -24 -11 -77 -12 -131
-3 -138 -4 -147 -14 -5 -5 -11 -34 -13 -64 l-3 -55 -78 -3 c-53 -2 -77 -7 -76
-15 1 -7 1 -33 0 -59 l-1 -48 -125 0 -124 0 -3 -67 -3 -68 -192 -3 -193 -2 -1
-48 c-1 -26 -1 -55 0 -65 2 -15 -10 -17 -121 -18 -68 -1 -130 -2 -138 -3 -10
-1 -15 -17 -16 -61 l-2 -60 -261 -3 -261 -2 0 -59 c0 -52 -2 -59 -22 -65 -13
-3 -373 -6 -800 -6 l-778 0 -2 43 c-1 23 -2 52 -2 65 l0 22 -268 0 -267 0 -3
62 -3 63 -122 3 -123 3 0 64 0 65 -195 0 -195 0 0 70 0 69 -137 3 -138 3 0 55
0 55 -67 3 -68 3 0 59 c0 32 -4 62 -10 65 -5 3 -64 9 -130 12 l-120 6 0 58 c0
68 1 68 -118 66 -93 -2 -89 -6 -94 88 l-3 50 -72 3 -73 3 0 58 c0 36 -5 63
-13 69 -7 6 -39 10 -70 9 l-57 -2 0 52 c0 78 -4 83 -66 83 l-54 0 0 55 0 55
-37 0 c-78 0 -83 5 -83 77 l0 65 -65 -4 c-36 -3 -62 -1 -59 4 3 5 3 36 -1 69
l-7 61 -57 -4 -56 -3 -1 68 c-1 80 -7 86 -75 83 l-47 -2 -8 91 c-4 49 -8 106
-9 125 l-1 35 -57 -1 c-54 -1 -56 0 -62 27 -4 16 -5 46 -3 66 l3 38 -57 5
c-51 5 -58 3 -61 -15 -2 -11 -5 42 -6 117 l-1 137 -60 -4 -60 -5 0 84 c0 45
-3 86 -7 90 -5 4 -8 22 -8 39 0 31 -1 32 -45 32 -31 0 -44 -4 -42 -12 1 -7 -2
-13 -8 -13 -13 0 -12 -4 -10 168 l2 142 -34 1 c-18 1 -44 2 -58 3 -14 1 -25 7
-26 14 -1 6 -3 92 -5 190 l-3 177 -6 -145 -6 -145 -2 118 -2 117 -32 1 c-18 1
-25 3 -16 6 23 6 23 20 1 26 -10 3 -3 5 15 6 17 0 32 6 32 12 0 8 -17 10 -50
7 l-50 -5 -2 256 -3 256 -55 -3 c-30 -2 -58 -8 -62 -15 -5 -8 -8 -8 -8 -1 0 6
3 13 6 17 5 5 7 1394 1 1419 -1 6 22 12 58 13 l60 2 3 198 c1 109 -2 203 -6
207 -6 6 -11 -1 -14 -16 -3 -14 -1 -23 4 -20 6 4 8 -63 6 -172 l-3 -179 -52
-3 c-34 -2 -53 1 -53 8 0 6 5 8 10 5 6 -3 10 1 10 9 0 9 5 16 10 16 6 0 10 4
10 10 0 5 -8 7 -17 4 -12 -4 -9 1 7 15 14 11 19 21 12 21 -10 0 -10 5 -2 21 9
15 8 24 -2 37 -8 10 -9 13 -1 9 14 -9 27 10 28 38 0 13 6 20 17 19 10 -1 15 2
12 7 -3 5 -11 9 -17 7 -20 -4 -57 13 -57 26 0 6 5 17 12 24 9 9 9 18 0 37 -7
15 -8 24 -3 21 5 -3 15 1 22 10 10 12 10 15 -2 12 -8 -2 -15 7 -17 20 -2 12
-7 22 -12 22 -12 0 -18 -46 -8 -64 6 -11 3 -18 -11 -26 -16 -8 -22 -7 -30 9
-6 10 -8 20 -6 23 3 2 -9 4 -25 4 -26 0 -30 -3 -29 -25 0 -26 0 -26 11 -3 6
12 15 22 20 22 5 0 6 -6 1 -12 -4 -7 -6 -21 -5 -31 2 -9 -5 -21 -15 -25 -16
-6 -18 -21 -18 -149 0 -122 2 -142 15 -138 8 2 22 0 30 -5 10 -7 -16 -10 -82
-10 l-98 0 0 -705 0 -705 65 0 65 0 1 -197 c0 -109 0 -251 -1 -315 l-1 -118
56 0 c37 0 54 -4 50 -10 -4 -6 -31 -10 -61 -9 l-54 2 0 319 0 318 -65 0 -65 0
0 715 0 715 65 0 65 0 0 320 0 320 65 0 65 0 0 200 0 200 60 0 c33 0 60 -4 60
-10 0 -5 -22 -10 -50 -10 -48 0 -50 -1 -49 -27 l1 -28 8 25 c8 24 8 24 9 3 1
-13 6 -23 12 -23 5 0 7 6 4 13 -4 6 2 2 13 -10 11 -12 23 -19 28 -15 5 4 1 -1
-9 -10 -11 -10 -25 -18 -31 -18 -6 0 -12 -9 -12 -20 0 -10 2 -17 5 -15 2 3 10
0 16 -5 9 -8 14 -6 18 4 4 10 1 13 -9 9 -22 -8 -17 10 7 25 21 13 43 7 23 -6
-5 -4 -10 -27 -9 -52 1 -32 -4 -47 -15 -51 -9 -4 -1 -7 17 -6 18 0 30 4 27 9
-3 5 0 17 8 26 12 15 11 16 -4 3 -16 -12 -18 -11 -18 3 0 9 5 16 11 16 5 0 7
6 3 12 -11 18 -4 82 9 90 7 4 8 8 2 8 -6 0 -9 60 -7 165 l3 165 52 -2 c28 0
59 -6 69 -11 23 -15 29 -6 29 44 0 64 17 109 40 109 10 0 19 4 19 9 0 4 -12 7
-28 5 -25 -2 -26 -2 -8 11 10 8 15 19 11 25 -6 9 -10 9 -16 -1 -6 -10 -8 -7
-6 9 1 23 30 31 42 12 8 -13 35 -13 35 0 0 5 -8 7 -17 3 -10 -3 -15 -3 -11 1
3 4 14 9 24 10 10 2 20 8 22 14 2 8 -11 12 -40 12 -74 0 -75 -2 -77 -172 -1
-49 -4 -88 -8 -88 -10 0 0 241 10 258 5 7 30 12 60 12 l52 0 1 68 c1 37 2 88
3 115 l1 47 65 0 65 0 0 65 0 65 55 0 55 0 0 85 0 85 65 0 65 0 0 84 c0 46 3
98 6 115 6 30 8 31 60 31 l54 0 0 38 c0 76 6 82 72 82 l60 0 -4 70 -3 70 61 0
62 0 7 70 7 70 57 -2 56 -2 -52 -3 -53 -4 -2 -47 c-1 -26 -2 -57 -2 -69 0 -21
-5 -23 -63 -23 l-63 0 0 -77 c0 -71 7 -97 12 -42 1 18 8 25 23 26 46 1 56 4
50 13 -4 6 -11 7 -17 4 -7 -5 -8 -2 -4 5 5 7 14 10 22 7 7 -3 16 -1 19 4 4 6
0 10 -7 10 -10 0 -10 2 0 9 8 4 13 12 12 17 0 5 8 10 19 12 29 5 48 30 27 38
-14 5 -14 7 1 22 9 9 23 17 31 18 8 2 20 8 26 14 8 9 4 10 -18 4 -22 -5 -28
-4 -24 7 3 8 14 13 24 11 18 -3 18 -3 -1 13 -19 16 -19 16 8 12 16 -3 30 0 33
7 3 7 19 13 36 14 18 2 35 7 38 12 3 5 17 12 30 14 14 2 27 5 29 5 2 1 -2 8
-9 16 -7 8 -17 12 -24 8 -6 -4 -5 1 3 10 7 9 20 17 28 17 10 0 12 8 8 33 -3
17 -1 46 4 62 l10 30 0 -30 c-2 -56 1 -65 19 -65 13 0 14 2 4 9 -11 6 -8 14
13 37 21 23 23 29 11 34 -16 5 -9 23 11 27 7 2 10 -8 8 -27 -3 -21 0 -30 10
-30 8 0 15 -5 15 -11 0 -6 7 -3 16 5 8 9 20 13 25 10 6 -3 17 -3 26 0 13 5 13
9 2 24 -11 14 -11 15 1 5 8 -7 17 -13 21 -13 9 0 31 62 24 68 -3 3 -5 0 -5 -6
0 -7 -10 -8 -29 -2 -16 4 -59 6 -97 4 -59 -3 -63 -2 -29 6 22 5 68 9 102 9
l61 1 7 65 7 65 55 0 c53 0 54 -1 51 -27 -2 -16 2 -28 11 -31 10 -3 12 0 7 13
-4 13 -2 16 9 11 8 -3 15 -1 15 5 0 6 5 7 12 3 7 -4 8 -3 4 5 -4 6 -12 9 -17
6 -5 -4 -9 0 -9 7 0 9 -3 9 -10 -2 -11 -18 -14 58 -4 109 l7 31 108 0 109 0 1
58 c1 31 1 60 0 65 0 4 30 7 69 7 70 0 70 0 70 28 0 15 3 44 6 65 l7 37 108 0
109 0 0 63 0 62 124 -2 c140 -3 136 -5 136 85 l0 42 135 0 135 0 0 65 0 65
189 0 188 0 7 50 c4 27 4 61 0 75 l-6 25 342 0 342 0 -4 65 -3 65 663 0 662 0
0 -65z m2631 -1244 c19 -8 9 -10 -48 -10 -40 -1 -73 2 -73 7 0 11 93 14 121 3z
m-6533 -8 c-15 -2 -42 -2 -60 0 -18 2 -6 4 27 4 33 0 48 -2 33 -4z m-86 -63
c-2 -27 -8 -50 -14 -50 -6 0 -7 7 -4 16 3 9 6 31 6 50 0 19 3 34 8 34 4 0 5
-22 4 -50z m6621 -28 c-8 -33 -20 -18 -15 19 3 23 7 28 13 17 4 -8 5 -24 2
-36z m-6708 -62 c3 -5 -1 -10 -10 -10 -9 0 -13 5 -10 10 3 6 8 10 10 10 2 0 7
-4 10 -10z m6790 0 c3 -5 -1 -10 -10 -10 -9 0 -13 5 -10 10 3 6 8 10 10 10 2
0 7 -4 10 -10z m-6795 -104 c0 -3 -4 -8 -10 -11 -5 -3 -10 -1 -10 4 0 6 5 11
10 11 6 0 10 -2 10 -4z m7097 -248 c-3 -8 -6 -5 -6 6 -1 11 2 17 5 13 3 -3 4
-12 1 -19z m-8314 -2061 c-3 -5 -14 -6 -25 -4 -16 5 -17 3 -6 -11 7 -9 8 -13
2 -9 -8 4 -13 -4 -16 -23 -3 -16 0 -31 6 -33 13 -4 -2 -27 -17 -27 -7 0 -6 4
3 10 8 5 10 10 4 10 -14 0 -16 70 -2 87 6 8 20 11 32 8 19 -5 19 -5 4 5 -10 6
-18 19 -18 28 0 13 4 12 19 -8 11 -13 17 -28 14 -33z m38 -134 c13 -16 12 -17
-3 -4 -17 13 -22 21 -14 21 2 0 10 -8 17 -17z m-215 -198 c1 -16 -3 -24 -10
-22 -17 6 -15 47 2 47 4 0 8 -11 8 -25z m80 6 c0 -13 -6 -18 -19 -15 -13 2
-17 -1 -13 -11 6 -18 -19 -20 -30 -3 -5 7 -2 8 7 3 11 -6 12 -5 2 6 -23 24
-15 39 20 39 25 0 33 -4 33 -19z m-26 -55 c0 -2 -7 -7 -16 -10 -8 -3 -12 -2
-9 4 6 10 25 14 25 6z m-68 -51 c-3 -5 3 -3 13 5 11 9 16 10 11 3 -4 -7 -3
-13 3 -13 5 0 15 8 20 18 10 16 10 16 11 0 0 -10 5 -18 11 -18 5 0 8 4 4 9 -3
5 0 13 6 17 7 4 9 3 5 -4 -3 -6 -2 -13 3 -17 5 -3 10 -13 10 -23 -2 -133 4
-222 14 -222 8 0 9 -3 1 -8 -11 -8 -11 -68 0 -94 5 -10 4 -43 -1 -73 -7 -39
-7 -55 1 -55 7 0 7 -3 1 -8 -11 -8 -12 -85 -1 -145 4 -28 3 -36 -6 -31 -7 5
-8 3 -2 -7 13 -21 14 -39 1 -39 -7 0 -5 -5 3 -10 11 -7 12 -10 2 -10 -9 0 -11
-7 -7 -21 4 -11 6 -48 5 -82 -1 -34 -3 -128 -3 -209 -1 -139 -6 -165 -23 -136
-5 7 -3 8 6 3 9 -5 11 -4 6 4 -10 16 -27 3 -24 -17 2 -13 -5 -17 -29 -19 -18
-1 -35 3 -38 8 -4 5 0 6 8 3 11 -4 14 2 12 20 -4 29 4 33 24 14 11 -11 13 -10
8 5 -4 11 -1 17 8 17 9 0 12 6 9 15 -4 8 -10 13 -14 10 -5 -3 -11 1 -14 7 -3
7 -3 3 0 -9 3 -13 1 -23 -5 -23 -6 0 -11 8 -11 18 0 13 -2 14 -9 3 -6 -9 -10
-10 -16 -2 -10 17 3 44 17 35 7 -4 10 -4 6 1 -4 4 -3 17 3 29 10 21 10 21 -6
1 -13 -16 -17 -17 -24 -6 -5 7 -9 257 -9 554 0 297 4 534 8 526 5 -7 6 -18 2
-24z m195 -292 c-2 -21 -4 -4 -4 37 0 41 2 58 4 38 2 -21 2 -55 0 -75z m9260
45 c-3 -8 -6 -5 -6 6 -1 11 2 17 5 13 3 -3 4 -12 1 -19z m104 -23 c5 4 9 -1 9
-9 0 -8 -5 -18 -12 -22 -7 -5 -8 -3 -4 5 5 8 1 14 -12 18 -11 2 -23 14 -25 25
-6 20 -5 20 14 -1 11 -12 24 -19 30 -16z m-98 -40 c-3 -9 -8 -14 -10 -11 -3 3
-2 9 2 15 9 16 15 13 8 -4z m-9308 -43 c-8 -8 -25 10 -19 20 4 6 9 5 15 -3 4
-7 6 -15 4 -17z m44 -69 c-1 -54 -3 -69 -8 -48 -7 29 -3 125 5 125 2 0 4 -35
3 -77z m9305 16 c-3 -5 -10 -7 -15 -3 -5 3 -7 10 -3 15 3 5 10 7 15 3 5 -3 7
-10 3 -15z m-9304 -186 c0 -105 -8 -107 -11 -3 -2 58 -6 77 -18 82 -12 5 -11
7 7 7 21 1 22 -2 22 -86z m9274 2 c3 -8 1 -15 -4 -15 -6 0 -10 7 -10 15 0 8 2
15 4 15 2 0 6 -7 10 -15z m-2 -39 c6 4 8 2 4 -4 -3 -6 2 -13 11 -15 10 -3 6
-4 -9 -4 -21 1 -28 6 -27 22 0 11 3 14 6 7 2 -6 10 -9 15 -6z m-10 -71 c2 -19
0 -35 -4 -35 -4 0 -8 16 -8 35 0 19 2 35 4 35 2 0 6 -16 8 -35z m-9263 -37 c0
-33 -3 -46 -8 -35 -7 18 -3 87 5 87 2 0 4 -24 3 -52z m9311 8 c0 -2 -7 -6 -15
-10 -8 -3 -15 -1 -15 4 0 6 7 10 15 10 8 0 15 -2 15 -4z m-48 -156 c-4 -127
-12 -110 -11 26 1 65 4 106 8 89 4 -16 5 -68 3 -115z m-9265 8 c-2 -13 -4 -5
-4 17 -1 22 1 32 4 23 2 -10 2 -28 0 -40z m0 -75 c-3 -10 -5 -2 -5 17 0 19 2
27 5 18 2 -10 2 -26 0 -35z m9265 -78 c-6 -34 -13 -32 -10 4 1 16 5 28 9 26 3
-3 4 -16 1 -30z m-5 -97 c-3 -7 -5 -2 -5 12 0 14 2 19 5 13 2 -7 2 -19 0 -25z
m136 -21 c-4 -17 -3 -19 6 -7 8 11 9 8 7 -15 -3 -28 -36 -51 -36 -26 0 6 7 7
17 4 11 -4 14 -3 9 6 -4 6 -16 9 -27 6 -17 -6 -20 -3 -17 22 3 26 24 46 40 37
3 -2 4 -14 1 -27z m-9396 -24 c-3 -10 -5 -2 -5 17 0 19 2 27 5 18 2 -10 2 -26
0 -35z m9260 -15 c-3 -8 -6 -5 -6 6 -1 11 2 17 5 13 3 -3 4 -12 1 -19z m-9260
-55 c-3 -10 -5 -4 -5 12 0 17 2 24 5 18 2 -7 2 -21 0 -30z m9463 -7 c0 -3 -4
-8 -10 -11 -5 -3 -10 -1 -10 4 0 6 5 11 10 11 6 0 10 -2 10 -4z m-9603 -12
c-3 -3 -12 -4 -19 -1 -8 3 -5 6 6 6 11 1 17 -2 13 -5z m9419 -32 c-20 -3 -23
-9 -23 -38 1 -27 5 -34 22 -34 16 0 17 -2 5 -10 -13 -9 -13 -10 0 -10 12 -1
11 -4 -4 -15 -26 -20 -36 -11 -37 33 -1 20 -3 30 -6 21 -2 -10 -13 -19 -24
-22 -11 -3 -18 -13 -17 -24 4 -45 -3 -94 -12 -88 -7 4 -7 -3 0 -19 7 -19 6
-26 -3 -26 -7 0 -12 -14 -12 -35 0 -19 4 -35 9 -35 5 0 7 -2 4 -5 -3 -3 -12
-3 -20 0 -13 5 -16 30 -16 136 -1 81 3 129 9 129 6 0 8 8 5 18 -5 14 1 17 36
20 34 2 39 0 30 -11 -9 -10 -8 -14 2 -14 8 0 17 13 20 28 5 25 7 27 30 16 l26
-12 -24 -3z m-9213 -9 c-7 -2 -21 -2 -30 0 -10 3 -4 5 12 5 17 0 24 -2 18 -5z
m54 -45 c-2 -13 -4 -5 -4 17 -1 22 1 32 4 23 2 -10 2 -28 0 -40z m9171 17 c-3
-3 -9 2 -12 12 -6 14 -5 15 5 6 7 -7 10 -15 7 -18z m-9173 -102 c-1 -32 -3
-62 -5 -68 -2 -5 0 -17 4 -26 4 -8 5 -56 3 -105 l-3 -89 -2 98 c-1 56 -6 97
-12 97 -13 0 -13 37 0 45 5 3 6 15 1 28 -7 20 -7 28 4 65 8 24 11 11 10 -45z
m9209 49 c3 -5 -1 -9 -9 -9 -8 0 -15 4 -15 9 0 4 4 8 9 8 6 0 12 -4 15 -8z
m-46 -44 c-2 -6 -12 -12 -22 -14 -14 -2 -15 0 -5 12 14 17 32 19 27 2z m49
-50 c-3 -8 -6 -5 -6 6 -1 11 2 17 5 13 3 -3 4 -12 1 -19z m-180 -150 c-3 -8
-6 -5 -6 6 -1 11 2 17 5 13 3 -3 4 -12 1 -19z m34 -2 c15 9 10 -2 -6 -16 -13
-10 -15 -9 -14 11 0 13 3 18 6 11 2 -6 9 -10 14 -6z m-16 -45 c3 -5 2 -12 -3
-15 -5 -3 -9 1 -9 9 0 17 3 19 12 6z m12 -68 c0 -14 -5 -33 -13 -41 -13 -13
-14 -11 -10 14 2 16 5 35 5 42 2 23 16 12 18 -15z m-9128 -490 l1 -63 49 0
c31 0 53 -5 61 -15 7 -9 14 -63 17 -138 6 -123 6 -124 29 -119 13 2 39 1 58
-2 l34 -6 7 -120 7 -119 57 -3 56 -3 2 -70 c1 -38 2 -93 2 -122 l1 -52 63 -3
62 -3 3 -72 3 -73 54 0 53 0 7 -62 c4 -35 5 -79 2 -98 -3 -26 -4 -21 -6 20 0
30 -4 72 -7 93 l-7 37 -53 0 -54 0 0 75 0 75 -64 0 -63 0 -7 78 c-3 43 -3 99
0 125 l7 47 -61 0 -60 0 -7 120 -8 119 -61 3 -61 3 -2 55 c-1 30 -2 90 -2 133
l-1 77 -49 0 c-86 0 -81 -13 -79 209 l1 196 8 -130 c3 -71 7 -158 8 -192z
m9181 112 l0 -184 -62 -3 -63 -3 -3 -137 -3 -138 -58 0 -58 0 -7 -46 c-3 -26
-6 -70 -6 -98 0 -89 -5 -96 -65 -96 l-52 0 -7 -77 c-3 -42 -6 -98 -6 -125 l0
-48 -37 2 c-37 1 -37 1 -5 5 l32 4 0 78 c0 43 3 99 6 125 l7 46 52 0 c62 0 65
4 65 122 0 42 4 88 9 101 9 23 15 25 60 23 28 -2 52 -2 52 -2 1 1 5 62 8 136
l6 135 63 3 62 3 0 179 c0 99 2 180 5 180 3 0 5 -83 5 -185z m-193 83 c-2 -18
-4 -4 -4 32 0 36 2 50 4 33 2 -18 2 -48 0 -65z m-8678 -228 c-1 -36 -4 -88 -7
-116 -6 -43 -9 -50 -20 -38 -7 8 -8 14 -3 14 6 0 11 10 11 23 -1 12 1 56 4 97
4 68 3 73 -10 55 -8 -11 -13 -28 -10 -37 2 -10 0 -21 -5 -24 -5 -3 -9 16 -8
44 2 45 4 50 26 48 22 -1 23 -5 22 -66z m8615 -11 c-8 -13 -24 -1 -24 18 0 13
3 13 15 3 8 -7 12 -16 9 -21z m-42 -49 c-6 -41 -12 -38 -12 6 0 19 4 33 8 30
5 -3 7 -19 4 -36z m-5 -62 c-3 -8 -6 -5 -6 6 -1 11 2 17 5 13 3 -3 4 -12 1
-19z m17 -34 c4 -9 4 -19 2 -21 -8 -8 -26 8 -26 23 0 19 16 18 24 -2z m-114
-75 c0 -5 -4 -7 -10 -4 -6 4 -7 -1 -3 -11 6 -16 7 -15 20 2 7 10 13 13 13 6 0
-6 -10 -21 -22 -33 l-23 -21 25 7 c19 5 21 4 10 -4 -29 -20 -40 -12 -40 29 0
29 4 40 15 40 8 0 15 -5 15 -11z m-8233 -225 c-3 -3 -12 -4 -19 -1 -8 3 -5 6
6 6 11 1 17 -2 13 -5z m0 -146 c-3 -8 -6 -5 -6 6 -1 11 2 17 5 13 3 -3 4 -12
1 -19z m8093 -28 c0 -5 -2 -10 -4 -10 -3 0 -8 5 -11 10 -3 6 -1 10 4 10 6 0
11 -4 11 -10z m-103 -56 c-3 -3 -12 -4 -19 -1 -8 3 -5 6 6 6 11 1 17 -2 13 -5z
m63 2 c0 -3 -4 -8 -10 -11 -5 -3 -10 -1 -10 4 0 6 5 11 10 11 6 0 10 -2 10 -4z
m-7833 -142 c-3 -3 -12 -4 -19 -1 -8 3 -5 6 6 6 11 1 17 -2 13 -5z m7696 -6
c-2 -5 -15 -8 -28 -8 -13 0 -27 -5 -30 -11 -4 -6 -14 -8 -22 -5 -8 4 -11 1 -8
-5 4 -6 13 -8 21 -5 16 6 19 -10 4 -19 -6 -4 -7 -11 -4 -17 4 -7 2 -8 -4 -4
-7 4 -12 2 -12 -3 0 -6 8 -11 17 -11 9 0 13 -3 9 -7 -4 -5 -13 -8 -19 -8 -7 0
-14 -13 -18 -30 -3 -16 -5 5 -5 47 1 71 3 78 21 78 17 0 17 2 5 10 -11 7 -1 9
31 7 26 -1 45 -5 42 -9z m200 -50 c-3 -29 -6 -59 -8 -65 -5 -14 -81 -18 -88
-5 -3 4 14 7 36 7 l42 0 3 58 c2 31 7 57 11 57 4 0 6 -24 4 -52z m-7866 -35
c-3 -10 -5 -4 -5 12 0 17 2 24 5 18 2 -7 2 -21 0 -30z m7747 -117 c-4 -42 -9
-74 -12 -72 -2 3 -1 39 3 81 4 42 9 74 11 72 3 -3 2 -39 -2 -81z m-221 -43
c-13 -2 -33 -2 -45 0 -13 2 -3 4 22 4 25 0 35 -2 23 -4z m212 -53 c-3 -5 -30
-10 -59 -10 l-53 0 -7 -46 c-3 -26 -6 -71 -6 -100 0 -59 -10 -67 -74 -62 -34
3 -43 -16 -45 -89 l-1 -43 -57 2 -58 2 51 3 51 4 7 61 c3 34 12 65 19 70 6 4
31 8 55 8 l42 0 0 48 c0 26 3 70 6 99 l7 52 61 4 c33 2 62 4 64 5 2 1 0 -2 -3
-8z m-7822 -7 c-13 -2 -35 -2 -50 0 -16 2 -5 4 22 4 28 0 40 -2 28 -4z m34
-35 c-3 -7 -5 -2 -5 12 0 14 2 19 5 13 2 -7 2 -19 0 -25z m0 -155 c-2 -16 -4
-5 -4 22 0 28 2 40 4 28 2 -13 2 -35 0 -50z m123 -40 c0 -21 3 -49 6 -63 4
-20 3 -22 -5 -10 -6 8 -11 34 -11 57 l0 42 -47 4 -48 3 53 2 52 2 0 -37z m123
-100 c3 -5 7 -33 11 -63 3 -37 2 -47 -3 -30 -5 14 -9 40 -10 58 l-1 33 -45 -7
c-30 -4 -45 -3 -45 5 0 12 86 16 93 4z m7181 -70 c-9 -52 -14 -54 -14 -5 0 23
5 42 10 42 7 0 8 -14 4 -37z m-4 -63 c0 -6 -26 -10 -59 -10 l-60 0 -4 -42 -4
-43 -1 47 -2 47 63 4 c34 2 63 4 65 5 1 1 2 -2 2 -8z m-7016 -62 c9 -54 11
-57 40 -61 29 -4 29 -4 -6 -5 l-36 -2 -7 60 -7 59 -71 4 -72 4 75 -1 75 -1 9
-57z m6824 -75 c-15 -2 -42 -2 -60 0 -18 2 -6 4 27 4 33 0 48 -2 33 -4z
m-6723 -75 l6 -58 69 0 c38 0 72 -4 75 -10 3 -5 8 -43 10 -82 l4 -73 -11 78
-11 77 -72 0 -72 0 -7 38 c-6 38 -7 115 -1 97 2 -5 6 -36 10 -67z m6625 -58
c0 -5 -4 -10 -10 -10 -5 0 -10 5 -10 10 0 6 5 10 10 10 6 0 10 -4 10 -10z
m-130 -77 c-4 -56 -5 -57 -8 -14 -3 38 2 71 10 71 2 0 1 -26 -2 -57z m-50 -51
c0 -4 -28 -8 -62 -9 -51 -1 -56 0 -28 7 48 10 90 12 90 2z m-6161 -28 c2 -2
-14 -4 -37 -4 -22 0 -44 5 -47 10 -6 10 73 3 84 -6z m6031 -34 c0 -27 -3 -50
-7 -50 -5 0 -6 22 -5 50 5 65 12 65 12 0z m-5953 -42 c-2 -18 -4 -6 -4 27 0
33 2 48 4 33 2 -15 2 -42 0 -60z m76 -35 c-7 -2 -19 -2 -25 0 -7 3 -2 5 12 5
14 0 19 -2 13 -5z m5830 0 c-13 -2 -33 -2 -45 0 -13 2 -3 4 22 4 25 0 35 -2
23 -4z m-113 -93 l0 -40 -102 2 -103 2 98 3 97 4 0 34 c0 19 2 35 5 35 3 0 5
-18 5 -40z m-5507 -47 c-23 -2 -64 -2 -90 0 -26 2 -7 3 42 3 50 0 71 -1 48 -3z
m324 1 c-3 -3 -12 -4 -19 -1 -8 3 -5 6 6 6 11 1 17 -2 13 -5z m-264 -49 c5
-28 4 -34 -3 -20 -8 19 -14 73 -6 64 2 -2 6 -22 9 -44z m5244 -42 c-3 -10 -5
-2 -5 17 0 19 2 27 5 18 2 -10 2 -26 0 -35z m-5134 -30 c-24 -2 -62 -2 -85 0
-24 2 -5 4 42 4 47 0 66 -2 43 -4z m5090 0 c-23 -2 -64 -2 -90 0 -26 2 -7 3
42 3 50 0 71 -1 48 -3z m-4930 -119 c75 4 107 3 97 -4 -8 -5 -61 -10 -117 -10
l-103 0 2 63 2 62 3 -59 4 -59 112 7z m4797 51 l0 -55 -87 2 -88 2 83 3 82 4
0 49 c0 28 2 50 5 50 3 0 5 -25 5 -55z m-4562 -178 l117 -3 -122 -2 -123 -2 2
63 2 62 3 -57 4 -57 117 -4z m4358 7 c-4 -11 -31 -14 -128 -12 l-123 2 123 3
122 4 2 52 c1 52 2 52 5 8 3 -24 2 -50 -1 -57z m-260 -130 c-6 -15 -66 -20
-66 -6 0 5 14 7 30 4 l30 -4 2 58 2 59 3 -49 c2 -27 2 -55 -1 -62z m-3969 9
c-2 -16 -4 -3 -4 27 0 30 2 43 4 28 2 -16 2 -40 0 -55z m236 -15 c-2 -5 -54
-8 -114 -8 -66 0 -108 4 -104 9 3 5 54 9 114 8 60 -1 107 -5 104 -9z m3550 -5
l-82 -4 -3 -62 -3 -62 -199 -3 c-110 -1 -197 1 -193 5 4 3 91 7 194 7 l186 1
0 50 c0 76 -2 75 96 73 l86 -2 -82 -3z m-3425 -115 c48 -3 133 -4 190 -3 56 0
102 -2 102 -7 0 -4 -88 -7 -195 -7 l-195 0 2 47 c1 41 2 43 5 11 l4 -36 87 -5z
m318 -71 c4 -39 3 -57 -5 -57 -7 0 -11 23 -11 62 0 74 8 72 16 -5z m1017 36
c-7 -2 -19 -2 -25 0 -7 3 -2 5 12 5 14 0 19 -2 13 -5z m160 0 c-7 -2 -19 -2
-25 0 -7 3 -2 5 12 5 14 0 19 -2 13 -5z m185 0 c-10 -2 -28 -2 -40 0 -13 2 -5
4 17 4 22 1 32 -1 23 -4z m49 1 c-3 -3 -12 -4 -19 -1 -8 3 -5 6 6 6 11 1 17
-2 13 -5z m191 -1 c-10 -2 -28 -2 -40 0 -13 2 -5 4 17 4 22 1 32 -1 23 -4z
m49 1 c-3 -3 -12 -4 -19 -1 -8 3 -5 6 6 6 11 1 17 -2 13 -5z m160 0 c-3 -3
-12 -4 -19 -1 -8 3 -5 6 6 6 11 1 17 -2 13 -5z m86 -1 c-7 -2 -19 -2 -25 0 -7
3 -2 5 12 5 14 0 19 -2 13 -5z m190 0 c-13 -2 -33 -2 -45 0 -13 2 -3 4 22 4
25 0 35 -2 23 -4z m537 -43 c-6 -37 -8 -40 -9 -13 -1 29 8 68 14 61 1 -2 -1
-23 -5 -48z m-2142 -67 c-93 -2 -243 -2 -335 0 -93 1 -17 3 167 3 184 0 260
-2 168 -3z m1830 0 l-328 -3 0 -60 0 -60 -482 -1 c-266 0 -567 -1 -670 -2
l-188 -2 2 60 2 60 3 -52 4 -53 660 0 659 0 0 60 0 60 333 -2 332 -3 -327 -2z
m-524 -73 c-6 -6 -15 -5 -24 1 -13 9 -12 10 3 5 9 -3 17 0 17 6 0 6 3 8 7 5 4
-4 2 -12 -3 -17z m-314 -3 c0 -5 -7 -6 -16 -3 -9 4 -22 2 -29 -4 -8 -7 -12 -5
-12 5 0 10 9 14 29 13 15 -1 28 -6 28 -11z m50 3 c-12 -8 -12 -10 -1 -10 8 0
11 -3 8 -6 -4 -4 -13 -2 -20 4 -8 7 -18 8 -22 4 -5 -4 -5 -1 -1 6 4 6 17 12
29 12 18 0 19 -2 7 -10z m193 -3 c-3 -5 1 -13 8 -18 11 -7 10 -9 -3 -9 -10 0
-18 6 -18 13 0 9 -3 8 -9 -2 -7 -11 -11 -10 -20 5 -7 13 -10 15 -11 5 0 -11
-3 -12 -11 -4 -6 6 -17 9 -24 7 -7 -3 -15 -1 -18 3 -3 5 21 9 53 9 32 0 56 -4
53 -9z m160 -7 c3 -11 1 -20 -4 -20 -5 0 -9 9 -9 20 0 11 2 20 4 20 2 0 6 -9
9 -20z m-93 -16 c0 -2 -7 -4 -15 -4 -8 0 -15 4 -15 10 0 5 7 7 15 4 8 -4 15
-8 15 -10z m40 6 c0 -5 -2 -10 -4 -10 -3 0 -8 5 -11 10 -3 6 -1 10 4 10 6 0
11 -4 11 -10z"/>
<path d="M5762 9900 c0 -14 2 -19 5 -12 2 6 2 18 0 25 -3 6 -5 1 -5 -13z"/>
<path d="M4487 9863 c-3 -5 13 -8 34 -9 21 0 39 2 39 6 0 9 -68 12 -73 3z"/>
<path d="M4696 9858 c3 -5 23 -6 45 -4 22 3 39 1 39 -5 0 -6 5 -7 10 -4 25 15
6 25 -44 23 -30 -1 -52 -6 -50 -10z"/>
<path d="M4870 9866 c0 -2 7 -6 15 -10 8 -3 15 -1 15 4 0 6 -7 10 -15 10 -8 0
-15 -2 -15 -4z"/>
<path d="M4915 9860 c3 -5 8 -10 11 -10 2 0 4 5 4 10 0 6 -5 10 -11 10 -5 0
-7 -4 -4 -10z"/>
<path d="M4947 9853 c4 -9 8 -12 10 -7 2 6 21 9 43 8 22 -1 40 2 40 7 0 5 -22
9 -50 9 -42 0 -48 -2 -43 -17z"/>
<path d="M5071 9866 c9 -9 69 -13 75 -5 3 5 -14 9 -37 9 -23 0 -40 -2 -38 -4z"/>
<path d="M5163 9863 c4 -4 36 -7 72 -8 36 -1 60 2 53 7 -16 9 -134 11 -125 1z"/>
<path d="M5450 9859 c0 -5 5 -7 10 -4 6 3 10 8 10 11 0 2 -4 4 -10 4 -5 0 -10
-5 -10 -11z"/>
<path d="M5480 9866 c0 -2 9 -6 20 -9 11 -3 20 -1 20 4 0 5 -9 9 -20 9 -11 0
-20 -2 -20 -4z"/>
<path d="M5585 9860 c4 -6 11 -8 16 -5 14 9 11 15 -7 15 -8 0 -12 -5 -9 -10z"/>
<path d="M5750 9855 c-7 -9 -8 -15 -2 -15 5 0 12 7 16 15 3 8 4 15 2 15 -2 0
-9 -7 -16 -15z"/>
<path d="M3888 9853 c6 -2 18 -2 25 0 6 3 1 5 -13 5 -14 0 -19 -2 -12 -5z"/>
<path d="M5680 9856 c0 -2 9 -6 20 -9 11 -3 20 -1 20 4 0 5 -9 9 -20 9 -11 0
-20 -2 -20 -4z"/>
<path d="M5818 9853 c7 -3 16 -2 19 1 4 3 -2 6 -13 5 -11 0 -14 -3 -6 -6z"/>
<path d="M6178 9853 c6 -2 18 -2 25 0 6 3 1 5 -13 5 -14 0 -19 -2 -12 -5z"/>
<path d="M4413 9843 c9 -2 23 -2 30 0 6 3 -1 5 -18 5 -16 0 -22 -2 -12 -5z"/>
<path d="M6432 9775 c0 -16 2 -22 5 -12 2 9 2 23 0 30 -3 6 -5 -1 -5 -18z"/>
<path d="M4340 9724 c8 -3 366 -5 795 -7 l780 -2 6 -60 6 -60 -1 65 -1 65
-800 1 c-440 1 -793 0 -785 -2z"/>
<path d="M3411 9658 c1 -33 4 -42 6 -24 7 47 28 60 112 67 l76 6 -97 1 -98 2
1 -52z"/>
<path d="M3633 9703 c9 -2 23 -2 30 0 6 3 -1 5 -18 5 -16 0 -22 -2 -12 -5z"/>
<path d="M3713 9703 c9 -2 23 -2 30 0 6 3 -1 5 -18 5 -16 0 -22 -2 -12 -5z"/>
<path d="M6566 9701 c5 -6 24 -6 44 -1 l35 8 -44 1 c-28 1 -41 -3 -35 -8z"/>
<path d="M4318 9650 l4 -40 -265 0 c-146 0 -272 -3 -281 -6 -11 -4 -16 -18
-15 -48 1 -39 1 -40 9 -12 5 16 7 32 5 36 -9 14 90 20 321 20 l234 0 0 45 c0
25 -3 45 -8 45 -4 0 -6 -18 -4 -40z"/>
<path d="M5947 9603 c-6 -9 512 -7 521 2 3 3 -112 5 -256 5 -143 0 -263 -3
-265 -7z"/>
<path d="M3140 9518 c0 -72 10 -74 12 -2 0 27 6 52 12 56 7 5 5 8 -6 8 -15 0
-18 -10 -18 -62z"/>
<path d="M3218 9573 c6 -2 18 -2 25 0 6 3 1 5 -13 5 -14 0 -19 -2 -12 -5z"/>
<path d="M3308 9573 c17 -2 47 -2 65 0 17 2 3 4 -33 4 -36 0 -50 -2 -32 -4z"/>
<path d="M6460 9532 l0 -52 58 -1 c100 -2 175 1 180 6 3 3 -45 5 -106 5 -83 0
-112 3 -113 13 -4 76 -19 99 -19 29z"/>
<path d="M7007 9573 l72 -4 4 -52 3 -52 2 58 2 57 -77 -2 -78 -2 72 -3z"/>
<path d="M3756 9491 c-3 -4 -48 -6 -99 -3 -123 6 -135 0 -139 -76 -2 -41 -7
-56 -16 -54 -8 1 -11 -2 -7 -7 3 -6 12 -8 20 -4 11 4 15 21 15 64 l0 59 109 0
c110 0 141 5 141 21 0 11 -17 12 -24 0z"/>
<path d="M6716 9470 c7 -6 9 -32 6 -63 -6 -67 3 -59 11 10 5 42 3 52 -11 58
-12 4 -14 3 -6 -5z"/>
<path d="M2958 9443 c18 -2 45 -2 60 0 15 2 0 4 -33 4 -33 0 -45 -2 -27 -4z"/>
<path d="M2892 9395 c0 -16 2 -22 5 -12 2 9 2 23 0 30 -3 6 -5 -1 -5 -18z"/>
<path d="M3200 9360 l-35 -6 30 -7 c33 -8 285 -5 285 3 0 3 -52 7 -117 8 -64
2 -119 4 -122 5 -3 2 -22 0 -41 -3z"/>
<path d="M6900 9359 c-58 -3 -89 -7 -70 -9 40 -5 240 -6 235 -2 -11 12 -76 16
-165 11z"/>
<path d="M7265 9350 c-3 -5 -1 -10 4 -10 6 0 11 5 11 10 0 6 -2 10 -4 10 -3 0
-8 -4 -11 -10z"/>
<path d="M4060 9009 l0 -327 64 4 64 3 7 -47 c3 -27 5 -52 3 -58 -4 -13 1 -14
132 -14 l120 0 0 118 0 119 -66 -1 -65 -1 2 -55 3 -55 -65 0 -64 0 0 255 0
255 40 3 c77 6 85 -1 85 -68 l0 -60 65 0 65 0 0 128 0 127 -195 0 -195 0 0
-326z"/>
<path d="M2693 9323 c20 -2 54 -2 75 0 20 2 3 4 -38 4 -41 0 -58 -2 -37 -4z"/>
<path d="M3160 9319 c0 -5 5 -7 10 -4 6 3 10 8 10 11 0 2 -4 4 -10 4 -5 0 -10
-5 -10 -11z"/>
<path d="M2663 9260 c0 -30 2 -43 4 -27 2 15 2 39 0 55 -2 15 -4 2 -4 -28z"/>
<path d="M7106 9293 c-6 -14 -5 -15 5 -6 7 7 10 15 7 18 -3 3 -9 -2 -12 -12z"/>
<path d="M3162 9270 c0 -19 2 -27 5 -17 2 9 2 25 0 35 -3 9 -5 1 -5 -18z"/>
<path d="M7061 9254 c0 -11 3 -14 6 -6 3 7 2 16 -1 19 -3 4 -6 -2 -5 -13z"/>
<path d="M3018 9223 c18 -2 45 -2 60 0 15 2 0 4 -33 4 -33 0 -45 -2 -27 -4z"/>
<path d="M3123 9223 c9 -2 25 -2 35 0 9 3 1 5 -18 5 -19 0 -27 -2 -17 -5z"/>
<path d="M7148 9223 c12 -2 30 -2 40 0 9 3 -1 5 -23 4 -22 0 -30 -2 -17 -4z"/>
<path d="M4595 8890 l0 -320 63 0 62 0 0 190 0 190 43 2 c23 1 51 2 61 2 18 1
19 8 17 64 l-2 62 69 0 69 0 -1 65 -1 65 -190 0 -190 0 0 -320z"/>
<path d="M5120 8890 l0 -320 195 0 195 0 0 66 0 65 -130 -3 c-146 -3 -139 -8
-131 80 l3 42 129 0 129 0 0 195 0 195 -195 0 -195 0 0 -320z m268 128 l-3
-63 -70 0 c-79 0 -82 3 -70 81 l6 44 70 0 70 0 -3 -62z"/>
<path d="M5648 9145 l-3 -65 135 0 135 0 -3 -65 -4 -65 -131 0 -132 0 3 -190
3 -190 194 0 194 0 0 253 c1 138 -2 282 -5 320 l-7 67 -187 0 -188 0 -4 -65z
m263 -329 c7 -77 4 -116 -10 -120 -14 -3 -90 -1 -120 3 -6 1 -7 101 -1 127 2
8 130 -2 131 -10z"/>
<path d="M2521 9178 c1 -17 2 -19 6 -5 4 14 12 16 46 12 36 -4 37 -3 12 4 -53
15 -65 13 -64 -11z"/>
<path d="M7242 9180 c0 -14 2 -19 5 -12 2 6 2 18 0 25 -3 6 -5 1 -5 -13z"/>
<path d="M7640 9193 c19 -3 39 -9 45 -14 14 -14 25 -11 19 6 -4 11 -19 15 -53
13 -40 -1 -41 -2 -11 -5z"/>
<path d="M7723 9140 c0 -36 2 -50 4 -32 2 17 2 47 0 65 -2 17 -4 3 -4 -33z"/>
<path d="M2970 9152 c0 -18 5 -32 10 -32 6 0 8 11 4 28 -10 39 -14 40 -14 4z"/>
<path d="M2519 9109 c-4 -30 -2 -35 16 -37 16 -1 21 5 23 25 2 21 -1 23 -12
14 -12 -10 -15 -8 -18 11 -3 17 -5 14 -9 -13z"/>
<path d="M7240 9131 c0 -6 4 -13 10 -16 6 -3 7 1 4 9 -7 18 -14 21 -14 7z"/>
<path d="M2722 9060 c1 -43 2 -43 5 -8 l4 37 97 3 97 3 -103 5 -102 5 2 -45z"/>
<path d="M2955 9100 l-30 -8 33 -1 c17 0 32 4 32 9 0 6 -1 9 -2 9 -2 -1 -16
-5 -33 -9z"/>
<path d="M7338 9093 c34 -2 90 -2 125 0 34 2 6 3 -63 3 -69 0 -97 -1 -62 -3z"/>
<path d="M6188 8825 l3 -255 59 0 60 0 0 125 0 125 65 0 65 0 0 65 0 65 65 0
65 0 0 65 0 65 -192 0 -193 0 3 -255z"/>
<path d="M6968 8948 l-3 -133 -60 -5 -60 -5 -3 -117 -3 -118 71 0 70 0 2 108
c0 59 2 113 2 121 1 11 15 14 64 12 l62 -2 0 135 0 136 -70 0 -69 0 -3 -132z"/>
<path d="M7850 9055 c7 -8 22 -15 34 -15 15 0 22 -6 22 -19 0 -13 -4 -17 -11
-11 -7 5 -17 -3 -28 -22 -12 -20 -13 -27 -4 -20 8 7 17 9 20 5 4 -3 18 -8 32
-9 24 -3 25 0 25 49 0 37 -3 48 -10 37 -8 -13 -10 -12 -10 3 0 13 -9 17 -41
17 -36 0 -40 -2 -29 -15z m50 -76 c0 -6 -4 -7 -10 -4 -5 3 -10 11 -10 16 0 6
5 7 10 4 6 -3 10 -11 10 -16z"/>
<path d="M2293 9010 c0 -30 2 -43 4 -27 2 15 2 39 0 55 -2 15 -4 2 -4 -28z"/>
<path d="M2450 9033 c0 -1 12 -9 28 -17 15 -8 21 -15 15 -16 -7 0 -12 -5 -10
-12 1 -6 -9 -14 -23 -18 l-25 -6 25 -5 c14 -3 66 -2 115 1 63 5 74 7 38 8 -52
2 -53 3 -53 32 0 17 -5 30 -11 30 -5 0 -7 -6 -4 -12 4 -7 0 -5 -8 5 -10 12
-26 17 -51 15 -20 -1 -36 -3 -36 -5z"/>
<path d="M7522 9003 l-2 -43 109 0 c65 0 111 -4 114 -10 3 -6 4 -5 3 2 -2 9
-33 14 -109 16 l-106 3 -4 37 -4 37 -1 -42z"/>
<path d="M2357 9010 c7 -8 20 -15 29 -16 9 -1 13 1 9 4 -4 4 -10 7 -13 7 -4 0
-14 4 -22 9 -12 7 -13 6 -3 -4z"/>
<path d="M2461 8994 c0 -11 3 -14 6 -6 3 7 2 16 -1 19 -3 4 -6 -2 -5 -13z"/>
<path d="M2387 8973 c-11 -10 -8 -53 3 -53 6 0 10 14 10 30 0 31 -2 35 -13 23z"/>
<path d="M2695 8970 l-30 -8 27 -1 c15 0 30 4 33 9 3 6 5 9 3 9 -2 -1 -16 -5
-33 -9z"/>
<path d="M3601 8935 c-29 -14 -73 -39 -98 -55 -25 -17 -62 -39 -84 -50 -32
-17 -39 -26 -39 -49 0 -16 8 -39 18 -52 10 -13 38 -62 62 -109 58 -113 56
-109 129 -232 34 -60 67 -111 72 -114 5 -3 35 11 65 31 50 33 54 39 41 53 -16
19 -70 114 -105 185 -58 120 -10 267 87 267 l31 0 0 75 0 75 -62 0 c-46 0 -78
-7 -117 -25z"/>
<path d="M7910 8940 c0 -5 7 -7 15 -4 8 4 15 8 15 10 0 2 -7 4 -15 4 -8 0 -15
-4 -15 -10z"/>
<path d="M2155 8864 c-4 -41 -5 -78 -2 -81 3 -2 15 0 27 7 11 6 31 8 43 5 17
-5 19 -4 7 4 -11 8 -12 11 -2 11 7 0 10 5 6 11 -3 6 -9 7 -13 3 -3 -5 -15 -10
-26 -12 l-20 -4 20 16 c20 15 20 15 -2 16 -16 0 -21 4 -16 16 3 9 9 12 12 7 3
-5 14 -12 23 -16 25 -9 12 22 -21 51 l-26 22 43 -3 c30 -2 42 0 42 10 0 9 -14
13 -44 13 l-44 0 -7 -76z"/>
<path d="M2486 8924 c-8 -20 -8 -79 0 -72 7 7 17 88 11 88 -3 0 -8 -7 -11 -16z"/>
<path d="M8015 8930 c33 -4 54 -7 47 -8 -7 -1 -10 -7 -7 -12 4 -6 11 -8 16 -5
5 4 12 -1 16 -11 4 -10 0 -20 -9 -25 -22 -12 -12 -55 13 -55 23 0 25 27 7 86
l-13 40 -65 -2 -65 -1 60 -7z m75 -85 c0 -8 -2 -15 -4 -15 -2 0 -6 7 -10 15
-3 8 -1 15 4 15 6 0 10 -7 10 -15z"/>
<path d="M7752 8883 c-2 -49 0 -53 21 -52 16 1 17 3 5 6 -12 3 -18 18 -21 51
l-3 47 -2 -52z"/>
<path d="M2233 8885 c0 -8 4 -12 9 -9 5 3 6 10 3 15 -9 13 -12 11 -12 -6z"/>
<path d="M8045 8890 c-2 -3 5 -7 16 -7 10 -1 19 2 19 6 0 9 -29 10 -35 1z"/>
<path d="M2355 8830 c3 -5 8 -10 11 -10 2 0 4 5 4 10 0 6 -5 10 -11 10 -5 0
-7 -4 -4 -10z"/>
<path d="M2480 8830 c0 -5 5 -10 10 -10 6 0 10 5 10 10 0 6 -4 10 -10 10 -5 0
-10 -4 -10 -10z"/>
<path d="M7865 8831 c20 -4 31 -14 35 -31 l6 -25 7 25 c8 30 7 31 -40 35 -31
2 -32 1 -8 -4z"/>
<path d="M2332 8803 c-14 -26 -16 -83 -2 -83 13 0 22 40 18 76 -3 28 -3 29
-16 7z"/>
<path d="M8130 8795 c0 -2 7 -8 15 -15 12 -10 15 -10 15 2 0 8 -7 15 -15 15
-8 0 -15 -1 -15 -2z"/>
<path d="M2099 8728 c-6 -21 -5 -38 1 -38 5 0 8 9 7 20 -1 17 -5 26 -8 18z"/>
<path d="M2149 8709 c-6 -3 6 -6 26 -7 19 -1 35 2 35 6 0 8 -48 9 -61 1z"/>
<path d="M2220 8708 c0 -4 24 -7 53 -7 54 1 49 5 -15 11 -21 2 -38 0 -38 -4z"/>
<path d="M7920 8707 c0 -4 54 -7 120 -6 66 0 120 4 120 8 0 3 -54 6 -120 6
-66 0 -120 -3 -120 -8z"/>
<path d="M3110 8668 c-36 -23 -103 -63 -150 -91 -47 -27 -89 -52 -93 -57 -7
-6 35 -77 68 -118 2 -2 56 29 120 68 64 40 120 68 124 64 4 -5 19 -30 34 -55
l26 -46 -32 -17 c-18 -9 -52 -30 -77 -46 -25 -16 -62 -39 -82 -50 -21 -11 -38
-23 -38 -26 0 -15 48 -106 96 -184 54 -87 55 -88 92 -86 33 3 134 50 172 81 8
7 42 26 75 43 110 56 112 32 -21 252 -141 235 -171 278 -206 296 -36 18 -33
19 -108 -28z m208 -378 c13 -22 20 -45 17 -51 -10 -15 -83 -59 -98 -59 -10 0
-47 58 -47 74 0 2 20 17 45 33 25 15 45 31 45 36 0 18 17 3 38 -33z"/>
<path d="M2030 8690 c-9 -6 -10 -10 -3 -10 6 0 15 5 18 10 8 12 4 12 -15 0z"/>
<path d="M2136 8644 c-3 -26 -4 -49 -2 -52 3 -2 8 17 11 43 4 25 5 48 3 51 -3
2 -8 -17 -12 -42z"/>
<path d="M2000 8649 c0 -5 5 -7 10 -4 6 3 10 8 10 11 0 2 -4 4 -10 4 -5 0 -10
-5 -10 -11z"/>
<path d="M8134 8618 l1 -43 65 -1 65 -1 -62 4 -62 4 -4 40 -4 39 1 -42z"/>
<path d="M1898 8623 c7 -3 16 -2 19 1 4 3 -2 6 -13 5 -11 0 -14 -3 -6 -6z"/>
<path d="M8323 8593 c-19 -7 -16 -33 4 -33 9 0 13 3 10 7 -4 3 1 12 11 19 14
11 14 13 2 13 -8 0 -21 -3 -27 -6z"/>
<path d="M6720 8435 l0 -135 125 0 125 0 0 -65 0 -65 60 0 60 0 0 130 0 130
-119 0 -120 0 -6 43 c-4 24 -5 55 -3 68 3 23 0 24 -59 27 l-63 3 0 -136z"/>
<path d="M7405 8558 c-59 -21 -120 -97 -191 -239 -39 -77 -54 -183 -35 -241
14 -43 68 -94 146 -140 104 -59 143 -56 160 15 4 15 11 29 15 32 13 8 -1 45
-16 45 -22 0 -106 45 -136 73 -39 37 -45 71 -20 123 12 24 25 44 29 44 5 0 21
-9 37 -19 17 -11 33 -18 38 -15 4 3 8 1 8 -3 0 -5 29 -30 64 -56 65 -48 116
-63 124 -38 3 8 19 30 36 50 73 82 94 157 61 220 -19 39 -106 115 -158 140
-47 23 -113 26 -162 9z m140 -144 c53 -40 57 -86 9 -104 -19 -7 -34 -2 -76 27
-56 38 -59 45 -26 81 28 29 52 28 93 -4z"/>
<path d="M1988 8457 c-3 -19 -2 -25 4 -19 6 6 8 18 6 28 -3 14 -5 12 -10 -9z"/>
<path d="M8276 8455 c-3 -8 -1 -15 4 -15 6 0 10 7 10 15 0 8 -2 15 -4 15 -2 0
-6 -7 -10 -15z"/>
<path d="M8300 8439 c0 -5 23 -9 52 -9 28 0 49 2 47 4 -9 8 -99 13 -99 5z"/>
<path d="M1859 8433 c-13 -3 -16 -16 -15 -58 0 -30 5 -55 9 -55 4 0 7 21 5 48
-2 33 2 51 12 59 16 13 15 13 -11 6z"/>
<path d="M8587 8403 c36 -4 42 -7 41 -26 -1 -12 -5 -27 -10 -33 -5 -7 -1 -17
9 -25 9 -8 14 -9 11 -4 -4 6 -3 17 3 25 7 12 9 11 10 -5 1 -11 3 -25 3 -32 2
-18 16 -28 16 -12 0 11 2 11 10 -1 7 -11 10 5 10 53 0 68 -10 83 -38 55 -9 -9
-12 -9 -12 0 0 8 -16 11 -47 10 l-48 -1 42 -4z m93 -73 c0 -5 -5 -10 -11 -10
-5 0 -7 5 -4 10 3 6 8 10 11 10 2 0 4 -4 4 -10z"/>
<path d="M2330 8349 c-25 -28 -46 -54 -48 -59 -2 -5 25 -43 60 -85 81 -98 234
-292 295 -374 27 -36 68 -87 93 -114 l45 -48 50 37 c28 21 52 39 54 40 1 2
-26 42 -60 89 -35 48 -82 113 -104 145 -22 32 -55 75 -72 96 -18 22 -33 42
-33 45 0 10 92 79 106 79 17 0 74 -79 147 -202 32 -54 68 -110 81 -124 l23
-27 52 29 c30 16 55 33 57 39 3 6 -33 67 -79 135 -46 69 -100 153 -122 188
-59 97 -78 112 -140 112 -46 0 -61 -6 -133 -54 l-80 -54 -64 76 c-34 42 -67
77 -73 78 -5 1 -30 -20 -55 -47z"/>
<path d="M8425 8310 c-28 -7 -27 -8 13 -9 23 0 42 4 42 9 0 11 -11 11 -55 0z"/>
<path d="M1783 8303 c15 -2 37 -2 50 0 12 2 0 4 -28 4 -27 0 -38 -2 -22 -4z"/>
<path d="M1417 8225 c-4 -24 -4 -51 -1 -60 5 -12 -4 -15 -53 -15 l-60 0 -6
-112 c-4 -61 -5 -114 -2 -116 3 -3 5 13 5 36 0 23 4 42 10 42 5 0 7 -6 4 -13
-3 -8 1 -14 9 -14 9 0 12 7 9 19 -3 14 0 17 12 12 9 -3 16 -1 16 6 0 6 -4 8
-10 5 -5 -3 -10 -1 -10 4 0 6 8 11 18 11 14 0 14 2 3 9 -10 6 -20 3 -33 -12
l-18 -22 10 28 c13 35 13 40 0 32 -5 -3 -10 -1 -10 4 0 6 9 11 21 11 11 0 18
4 14 10 -3 5 7 5 25 -2 17 -5 34 -8 37 -4 4 3 -1 6 -10 6 -10 0 -17 6 -17 14
0 17 21 15 46 -4 16 -12 17 -12 7 0 -15 17 -17 44 -3 35 10 -6 14 19 10 64 -1
17 2 22 12 18 9 -3 15 1 15 9 0 8 -7 14 -14 14 -8 0 -11 5 -8 10 9 14 62 12
68 -2 3 -8 6 -6 6 5 1 14 -8 17 -48 17 l-48 0 -6 -45z m-51 -94 c-3 -5 -15 -7
-26 -4 -28 7 -25 13 6 13 14 0 23 -4 20 -9z"/>
<path d="M8511 8224 c0 -11 3 -14 6 -6 3 7 2 16 -1 19 -3 4 -6 -2 -5 -13z"/>
<path d="M8530 8188 c0 -15 8 -18 53 -16 l52 1 -45 4 c-24 3 -48 10 -52 16 -5
8 -8 6 -8 -5z"/>
<path d="M7875 8176 c-77 -33 -204 -188 -231 -282 -23 -79 -14 -103 67 -178
41 -38 69 -72 69 -84 0 -22 -53 -72 -76 -72 -29 0 -90 40 -144 93 l-54 54 -43
-51 c-23 -28 -43 -55 -43 -61 0 -9 164 -150 198 -169 9 -5 44 -10 77 -10 48
-1 67 4 96 24 33 23 406 430 449 490 l19 27 -91 91 c-50 51 -110 103 -134 117
-48 28 -110 32 -159 11z m135 -146 c49 -48 45 -73 -26 -166 -65 -85 -91 -100
-137 -80 -33 13 -67 54 -67 78 0 23 139 186 162 191 13 2 26 5 30 6 4 0 21
-12 38 -29z"/>
<path d="M1628 8173 c12 -2 30 -2 40 0 9 3 -1 5 -23 4 -22 0 -30 -2 -17 -4z"/>
<path d="M4325 8162 c-3 -3 -5 -34 -5 -68 l0 -63 -62 -3 -63 -3 -3 -62 -3 -63
-200 0 -200 0 4 -54 c3 -32 1 -58 -6 -65 -7 -7 -74 -11 -196 -11 l-186 0 0
-62 0 -63 -67 -3 -68 -3 0 -64 0 -65 -195 0 -195 0 0 -65 0 -65 -65 0 -65 0 0
-190 c0 -145 -3 -190 -12 -191 -7 0 -37 -1 -65 -1 l-53 0 0 -63 c0 -35 -5 -67
-10 -70 -6 -4 -37 -8 -68 -10 l-57 -4 -5 -58 -5 -58 -62 -3 -63 -3 0 -124 0
-125 -65 0 -65 0 0 -65 0 -65 -65 0 -65 0 0 -49 c0 -76 -4 -81 -66 -81 l-54 0
0 -125 0 -124 58 -3 57 -3 3 -67 3 -68 -60 0 -61 0 -2 -192 -3 -193 -67 -3
-68 -3 0 -499 0 -500 65 0 65 0 0 445 0 445 60 0 60 0 0 195 0 195 53 1 c28 1
58 1 65 0 9 -1 12 29 12 124 l0 125 65 0 65 0 0 190 0 190 65 0 65 0 0 130 0
130 65 0 64 0 3 63 3 62 63 3 62 3 0 64 c0 73 -6 68 95 70 l40 0 5 60 5 60
125 5 125 5 3 57 3 57 -63 3 -63 3 -3 121 -3 121 32 7 c17 3 49 6 71 6 l39 0
-3 -125 -3 -125 58 0 57 0 0 125 0 125 70 0 70 0 0 70 0 70 65 0 65 0 0 49 c0
86 -12 81 201 81 l189 0 0 70 0 70 200 0 200 0 0 60 0 60 75 0 75 0 0 65 0 65
663 -2 662 -3 3 -62 3 -63 194 0 195 0 0 -62 0 -63 135 3 135 4 0 -71 0 -70
133 -3 132 -3 -3 -56 c-2 -31 1 -59 6 -63 5 -3 37 -6 70 -7 l62 -2 0 -63 0
-64 59 0 c65 0 71 -6 71 -82 0 -35 2 -38 28 -38 15 0 44 -3 65 -6 l37 -7 0
-63 0 -64 59 0 c74 0 86 -12 77 -80 l-7 -49 63 -3 63 -3 3 -62 3 -63 64 0 65
0 2 -117 c1 -65 1 -129 0 -143 -2 -14 0 -49 3 -77 l6 -53 65 0 64 0 0 -58 0
-57 100 2 c150 2 139 14 142 -141 l3 -131 55 -5 c30 -3 61 -9 68 -13 8 -6 12
-42 12 -125 l0 -117 62 0 63 0 3 -182 2 -183 51 0 c97 0 89 49 89 -525 l0
-505 55 0 55 0 0 570 0 570 -59 0 c-44 0 -60 4 -65 16 -3 9 -6 126 -6 260 l0
244 -70 0 -70 0 0 125 0 125 -62 0 -63 0 0 192 0 193 -62 3 -63 3 0 58 0 59
-125 7 -125 7 0 59 0 59 -70 0 -70 0 0 65 0 65 -65 0 -65 0 0 65 0 64 -67 3
-68 3 -3 62 -3 62 -57 3 c-36 2 -57 8 -58 16 -1 6 -2 34 -3 62 l-1 49 -67 3
-68 3 3 65 4 65 -69 0 -68 0 -3 62 -3 62 -127 3 -127 3 -3 69 -3 68 -129 -5
c-146 -5 -145 -6 -138 76 l3 42 -197 3 -197 2 -3 68 -3 67 -787 1 c-433 1
-790 -1 -793 -4z m3431 -1489 l-1 -68 -65 0 -64 0 -4 44 c-2 23 -1 54 2 67 6
22 11 24 70 24 l63 0 -1 -67z"/>
<path d="M1601 8115 c1 -48 1 -49 10 -17 6 21 6 39 0 50 -8 13 -10 5 -10 -33z"/>
<path d="M8633 8115 c0 -22 2 -30 4 -17 2 12 2 30 0 40 -3 9 -5 -1 -4 -23z"/>
<path d="M1350 8072 c0 -18 19 -24 37 -13 10 6 13 11 6 11 -6 0 -18 3 -27 6
-9 3 -16 1 -16 -4z"/>
<path d="M2240 7977 c-36 -34 -95 -99 -132 -144 l-67 -81 136 -129 c75 -70
148 -140 164 -154 78 -73 145 -55 283 73 l47 44 -28 35 c-15 20 -38 43 -50 53
-23 17 -24 17 -79 -33 -31 -28 -65 -51 -76 -51 -12 0 -56 35 -111 90 l-90 90
84 85 83 86 -50 49 -50 50 -64 -63z"/>
<path d="M1496 7997 c3 -10 9 -15 12 -12 3 3 0 11 -7 18 -10 9 -11 8 -5 -6z"/>
<path d="M8762 7975 c0 -16 2 -22 5 -12 2 9 2 23 0 30 -3 6 -5 -1 -5 -18z"/>
<path d="M8471 7901 l-45 -38 18 -29 c11 -16 27 -37 36 -46 10 -9 20 -23 22
-30 5 -14 56 9 104 47 l25 20 -47 55 c-25 30 -52 56 -58 57 -6 2 -31 -15 -55
-36z"/>
<path d="M8760 7919 c0 -5 9 -9 20 -9 11 0 20 2 20 4 0 2 -9 6 -20 9 -11 3
-20 1 -20 -4z"/>
<path d="M1170 7903 c-1 -10 -3 -43 -6 -74 -4 -39 -2 -59 6 -64 8 -5 11 1 10
21 -3 44 -1 56 9 50 5 -3 7 -16 5 -29 -4 -20 -4 -20 4 -2 5 11 7 37 4 57 -4
36 11 54 21 26 2 -7 3 -5 2 4 -2 11 6 18 24 21 14 2 2 5 -26 6 -44 1 -53 -2
-53 -16z"/>
<path d="M1372 7895 c0 -16 2 -22 5 -12 2 9 2 23 0 30 -3 6 -5 -1 -5 -18z"/>
<path d="M9010 7892 c0 -7 -4 -11 -9 -7 -5 3 -13 0 -17 -6 -4 -7 -3 -9 4 -5 6
3 12 -3 14 -14 3 -20 3 -20 15 -2 7 12 8 24 2 33 -7 11 -9 11 -9 1z"/>
<path d="M8883 7830 c0 -36 2 -50 4 -32 2 17 2 47 0 65 -2 17 -4 3 -4 -33z"/>
<path d="M1350 7774 c0 -101 -7 -112 -57 -93 -29 11 -53 6 -53 -11 0 -12 22
-9 32 5 5 6 8 5 8 -2 0 -14 48 -17 66 -5 15 9 26 163 14 182 -6 10 -10 -17
-10 -76z"/>
<path d="M4730 7708 l0 -68 -270 0 -270 0 0 -65 0 -65 -195 0 -195 0 0 -65 0
-65 -65 0 -64 0 -3 -62 -3 -63 -67 -3 -68 -3 0 -64 0 -65 -65 0 -65 0 0 -65 0
-65 -58 6 c-71 8 -80 -1 -84 -81 l-3 -60 -57 -3 c-56 -3 -58 -4 -58 -31 0 -16
-3 -43 -6 -60 -6 -30 -7 -31 -65 -31 l-59 0 0 -66 0 -66 -65 4 -65 3 0 -67 0
-68 -42 -2 c-24 -1 -54 -2 -68 -3 l-25 -1 -3 -122 -3 -122 -59 0 -60 0 0 -60
0 -60 -70 0 -69 0 -3 -137 -3 -138 -57 -3 -58 -3 -2 -187 -3 -187 -67 -3 -68
-3 0 -499 0 -500 60 0 60 0 2 423 3 422 68 3 67 3 0 148 c0 113 3 149 13 148
6 0 36 1 65 1 l52 2 0 125 0 125 60 0 59 0 3 128 3 127 68 3 67 3 -1 118 c-1
65 1 124 5 130 4 6 34 11 67 11 l59 0 0 60 0 60 65 0 65 0 0 65 0 65 60 0 60
0 0 65 0 65 70 0 70 0 0 65 0 65 65 0 64 0 3 63 3 62 65 5 65 5 3 63 3 62 119
0 119 0 3 68 3 67 140 3 140 2 -3 55 -4 55 336 0 335 0 3 133 3 132 265 0 265
0 3 -132 3 -133 333 0 334 0 6 -35 c4 -20 4 -45 1 -55 -6 -19 0 -20 189 -20
l196 0 0 -70 0 -70 65 0 65 0 0 -65 0 -64 68 -3 67 -3 3 -62 3 -63 64 0 65 0
0 -60 0 -59 63 -3 62 -3 3 -67 3 -68 64 0 65 0 0 -65 0 -65 60 0 60 0 0 -130
c0 -117 2 -130 18 -128 9 1 41 0 70 0 l52 -2 0 -125 0 -125 65 0 65 0 2 -192
3 -193 63 -3 62 -3 0 -69 0 -70 -65 0 -65 0 0 -185 0 -184 63 -3 62 -3 3 -312
2 -312 60 1 60 2 0 313 0 313 65 0 65 0 0 185 0 184 -62 3 -63 3 -3 133 -3
132 -64 0 -65 0 0 195 0 195 -65 0 -65 0 0 126 0 126 -65 -4 c-39 -2 -65 1
-66 7 -1 6 -3 64 -5 130 l-4 119 -32 2 c-18 1 -48 2 -65 3 l-33 1 0 119 c0
134 2 131 -81 131 l-49 0 0 63 0 62 -53 2 c-28 0 -57 2 -64 2 -9 1 -11 19 -6
66 l6 65 -66 0 -66 0 -3 68 -3 67 -56 -3 c-69 -4 -83 9 -77 72 l3 45 -130 3
-130 3 -3 68 -3 67 -204 0 -205 0 0 65 0 65 -265 0 -265 0 0 65 c0 55 -3 65
-17 66 -10 0 -183 1 -385 2 l-368 2 0 -67z m3030 -2453 l0 -65 -70 0 -70 0 0
65 0 65 70 0 70 0 0 -65z"/>
<path d="M8320 7774 c0 -7 -66 -70 -147 -141 -82 -72 -169 -150 -194 -174
l-46 -44 47 -47 46 -47 29 27 c17 15 73 62 125 104 52 43 120 100 150 128 30
27 58 50 61 50 3 0 11 11 17 25 10 22 7 29 -38 77 -27 29 -49 48 -50 42z"/>
<path d="M9090 7774 c0 -3 13 -17 30 -30 29 -25 34 -42 15 -57 -6 -5 -4 -7 5
-6 29 3 39 -1 43 -18 3 -10 5 12 6 50 l1 67 -50 0 c-27 0 -50 -3 -50 -6z m56
-16 c-5 8 0 12 13 12 16 0 20 -6 19 -24 -2 -17 -7 -22 -18 -18 -22 8 -40 23
-40 34 0 6 8 4 17 -3 11 -10 14 -10 9 -1z m34 -58 c0 -5 -4 -10 -9 -10 -6 0
-13 5 -16 10 -3 6 1 10 9 10 9 0 16 -4 16 -10z"/>
<path d="M1050 7683 l0 -68 -65 3 -65 4 0 -114 c0 -70 4 -108 9 -99 5 8 7 21
4 30 -4 13 -3 13 5 2 6 -8 8 -21 5 -30 -4 -12 -3 -13 5 -3 5 8 8 31 7 53 -2
28 3 42 14 49 10 6 12 9 3 10 -7 0 -12 6 -11 13 4 30 -2 67 -10 67 -6 0 -12
-17 -14 -37 l-4 -38 -1 43 -2 43 46 -2 c25 -2 48 -7 50 -11 11 -18 34 15 34
48 0 37 13 44 29 17 6 -10 11 -13 11 -8 0 6 5 3 10 -5 8 -12 10 -10 10 8 0 13
4 21 10 17 5 -3 7 -13 4 -23 -5 -14 -4 -14 4 -3 17 24 0 47 -31 42 -5 -1 -5 3
-2 9 4 6 14 9 22 6 8 -3 11 -1 8 4 -3 6 -14 10 -23 10 -9 0 -23 4 -31 9 -10 6
1 9 33 9 26 0 50 3 54 6 3 3 -22 6 -56 6 l-62 0 0 -67z m-100 -167 c0 -3 -4
-8 -10 -11 -5 -3 -10 -1 -10 4 0 6 5 11 10 11 6 0 10 -2 10 -4z"/>
<path d="M8892 7700 c0 -14 2 -19 5 -12 2 6 2 18 0 25 -3 6 -5 1 -5 -13z"/>
<path d="M8943 7673 c9 -2 23 -2 30 0 6 3 -1 5 -18 5 -16 0 -22 -2 -12 -5z"/>
<path d="M1070 7631 c0 -25 6 -27 13 -6 4 8 2 17 -3 20 -6 4 -10 -3 -10 -14z"/>
<path d="M1224 7592 c-6 -55 -9 -60 -34 -65 -15 -3 -40 -4 -56 -2 -24 3 -30 0
-31 -17 -2 -16 1 -18 10 -9 6 6 25 11 42 11 65 0 72 7 79 72 3 34 4 63 2 66
-3 2 -8 -23 -12 -56z"/>
<path d="M1889 7603 c-19 -27 -35 -51 -37 -54 -2 -5 53 -57 219 -201 30 -26
62 -53 72 -61 18 -12 17 -15 -10 -63 -34 -58 -61 -66 -102 -32 -15 13 -45 37
-67 53 -21 17 -69 57 -107 90 -111 96 -105 94 -134 60 -14 -17 -35 -43 -48
-58 l-24 -28 102 -83 c155 -125 246 -191 306 -221 l54 -27 19 23 c32 41 162
210 194 254 l32 42 -45 34 c-25 19 -66 53 -92 76 -79 71 -286 243 -292 243 -3
0 -21 -21 -40 -47z"/>
<path d="M9210 7612 c0 -5 14 -8 30 -7 19 1 35 -4 41 -14 9 -14 10 -14 5 2 -3
9 -1 17 4 17 8 0 16 -144 11 -187 -1 -7 3 -13 10 -13 8 0 9 11 5 31 -3 17 -6
65 -6 105 l0 74 -50 0 c-27 0 -50 -4 -50 -8z"/>
<path d="M1075 7590 c-4 -6 -11 -8 -16 -5 -14 9 -11 -21 4 -34 14 -11 27 -6
27 10 0 5 -8 6 -17 2 -16 -6 -16 -4 1 15 11 12 16 22 13 22 -3 0 -9 -5 -12
-10z"/>
<path d="M9001 7584 c0 -11 3 -14 6 -6 3 7 2 16 -1 19 -3 4 -6 -2 -5 -13z"/>
<path d="M1046 7514 c-8 -21 -8 -21 8 -21 8 0 12 6 9 13 -2 7 4 14 14 17 15 4
15 5 -3 6 -12 0 -25 -6 -28 -15z"/>
<path d="M8482 7504 c-62 -31 -139 -105 -149 -142 -4 -17 0 -36 12 -56 10 -17
24 -43 32 -58 8 -15 18 -30 24 -33 16 -11 10 -54 -10 -65 -52 -27 -82 -7 -156
103 -21 31 -41 57 -43 57 -13 0 -102 -63 -102 -72 0 -17 22 -52 94 -146 58
-77 77 -94 108 -103 114 -30 268 73 268 181 0 20 -13 58 -30 89 -36 65 -37 85
-8 105 42 30 61 21 116 -58 l52 -75 53 32 c28 17 54 32 56 34 9 6 -85 146
-121 178 -69 63 -115 70 -196 29z"/>
<path d="M9011 7526 c11 -10 109 -15 109 -6 0 6 -25 10 -57 10 -31 0 -54 -2
-52 -4z"/>
<path d="M9163 7450 c0 -36 2 -50 4 -32 2 17 2 47 0 65 -2 17 -4 3 -4 -33z"/>
<path d="M9191 7484 c0 -11 3 -14 6 -6 3 7 2 16 -1 19 -3 4 -6 -2 -5 -13z"/>
<path d="M1042 7460 c0 -14 2 -19 5 -12 2 6 2 18 0 25 -3 6 -5 1 -5 -13z"/>
<path d="M1092 7385 c0 -16 2 -22 5 -12 2 9 2 23 0 30 -3 6 -5 -1 -5 -18z"/>
<path d="M9353 7383 c15 -2 39 -2 55 0 15 2 2 4 -28 4 -30 0 -43 -2 -27 -4z"/>
<path d="M9167 7345 c3 -22 7 -42 9 -44 8 -9 2 45 -6 64 -7 14 -8 8 -3 -20z"/>
<path d="M9420 7349 c0 -18 -4 -20 -27 -14 -23 5 -25 4 -14 -9 7 -8 20 -12 29
-8 9 3 4 -6 -12 -21 -26 -24 -27 -32 -3 -28 4 0 7 -3 7 -9 0 -15 -16 -12 -30
5 -12 15 -35 11 -25 -5 3 -4 -1 -11 -7 -13 -10 -4 -10 -6 0 -6 7 -1 11 -5 7
-10 -3 -5 0 -13 6 -17 7 -4 9 -3 6 2 -3 6 -2 16 4 24 7 12 9 12 9 -4 0 -15 3
-16 15 -6 16 14 21 6 35 -54 5 -20 8 8 9 82 1 61 -1 112 -4 112 -3 0 -5 -9 -5
-21z m0 -59 c0 -5 -2 -10 -4 -10 -3 0 -8 5 -11 10 -3 6 -1 10 4 10 6 0 11 -4
11 -10z"/>
<path d="M1090 7291 c0 -6 -17 -7 -37 -5 -29 4 -34 3 -23 -5 23 -16 70 -14 70
4 0 8 -2 15 -5 15 -3 0 -5 -4 -5 -9z"/>
<path d="M9205 7281 c3 -6 22 -11 41 -11 39 0 36 11 34 -166 l-1 -91 38 -1
c82 -2 78 6 81 -139 2 -121 4 -131 22 -136 18 -5 20 0 20 41 0 25 -3 42 -7 39
-3 -4 -6 -20 -5 -37 0 -16 -4 -30 -10 -30 -7 0 -8 14 -4 38 3 20 6 54 6 75 0
23 4 36 10 32 6 -4 11 8 11 29 2 51 3 56 12 56 4 0 7 -3 6 -6 0 -4 5 -11 13
-15 10 -7 11 -12 0 -29 -14 -22 -7 -27 12 -7 7 7 11 19 9 27 -4 13 -3 13 6 0
7 -10 6 -18 -1 -27 -8 -10 -7 -12 6 -7 9 3 16 14 16 24 0 10 6 21 13 23 9 4 8
6 -2 6 -11 1 -11 4 -1 16 9 10 9 15 1 15 -6 0 -11 5 -11 12 0 24 30 -17 32
-44 1 -15 6 -24 10 -22 4 3 8 -9 8 -25 0 -17 -5 -31 -11 -31 -5 0 -7 -5 -3
-11 15 -26 23 22 21 135 l-2 118 -60 -7 c-33 -4 -65 -7 -72 -8 -7 0 -10 -4 -7
-8 2 -4 0 -11 -6 -14 -8 -5 -8 -11 -1 -19 6 -7 8 -16 4 -19 -3 -4 -1 -7 5 -7
5 0 12 5 14 12 2 6 9 8 16 4 23 -14 2 -32 -36 -28 -32 3 -35 1 -21 -10 9 -7
14 -20 12 -28 -4 -13 -3 -13 9 0 14 16 42 20 55 7 4 -5 3 -8 -2 -7 -26 6 -44
-2 -50 -20 -9 -27 -25 -25 -25 3 0 29 -51 58 -89 51 l-29 -6 0 73 c0 41 5 80
10 87 7 8 7 12 0 12 -6 0 -12 19 -14 43 -3 42 -3 42 -46 45 -29 2 -42 0 -37
-7z m245 -191 c0 -5 -5 -10 -11 -10 -5 0 -7 5 -4 10 3 6 8 10 11 10 2 0 4 -4
4 -10z m-23 -172 c-3 -8 -6 -5 -6 6 -1 11 2 17 5 13 3 -3 4 -12 1 -19z"/>
<path d="M957 7260 c-3 -11 -1 -20 4 -20 5 0 9 9 9 20 0 11 -2 20 -4 20 -2 0
-6 -9 -9 -20z"/>
<path d="M4590 7185 l0 -65 -195 0 -194 0 -3 -62 -3 -63 -132 -3 -133 -3 0
-64 0 -64 -127 -3 -128 -3 -3 -62 -3 -63 -69 0 -70 0 0 -65 0 -65 -70 0 -70 0
0 -65 0 -65 -65 0 -65 0 0 -65 0 -65 -60 0 -60 0 0 -104 c0 -57 -3 -111 -6
-120 -5 -12 -20 -16 -64 -16 l-58 0 -5 -97 c-3 -54 -5 -114 -4 -133 l2 -35
-62 -3 -63 -3 0 -123 c0 -141 3 -136 -86 -136 l-54 0 0 -235 0 -235 -60 0 -60
0 0 -330 0 -331 56 3 55 3 -1 258 -1 257 71 0 70 0 2 248 c3 209 5 247 17 244
8 -2 37 0 64 3 l50 7 -6 100 c-4 55 -4 112 0 128 5 28 8 29 67 32 l61 3 3 123
3 122 62 0 62 0 -3 102 c-5 148 -5 148 73 148 l65 0 -6 30 c-4 16 -3 45 0 65
l7 35 64 0 65 0 0 59 c0 67 4 71 81 71 l49 0 0 65 0 65 65 0 65 0 0 65 0 65
135 0 135 0 0 65 0 65 130 0 130 0 0 65 0 65 205 0 205 0 0 65 0 65 465 0 465
0 0 -65 0 -65 200 0 200 0 0 -65 0 -64 68 -3 67 -3 3 -63 3 -63 127 2 127 1 3
-66 3 -66 64 0 65 0 0 -65 0 -65 69 0 68 0 -1 -62 -1 -63 68 -3 67 -3 0 -122
0 -123 55 0 c30 0 58 -3 62 -8 4 -4 10 -65 11 -135 l4 -127 64 3 63 4 3 -128
3 -128 63 -3 62 -3 0 -570 0 -569 60 2 60 3 0 633 0 632 -70 0 -70 0 0 125 0
124 -62 3 -63 3 -3 128 -3 127 -52 0 c-77 0 -81 5 -75 91 3 40 3 90 0 111 l-5
38 -53 0 c-31 0 -56 5 -61 13 -4 6 -8 39 -8 72 l0 60 -35 -2 c-19 -1 -50 1
-67 3 -33 5 -33 6 -33 59 l0 55 -65 0 -65 0 0 68 0 67 -122 3 c-68 2 -126 6
-130 8 -5 3 -8 32 -8 65 l0 59 -70 0 -70 0 0 65 0 65 -200 0 -200 0 0 65 0 65
-590 0 -590 0 0 -65z"/>
<path d="M963 7175 c0 -33 2 -45 4 -27 2 18 2 45 0 60 -2 15 -4 0 -4 -33z"/>
<path d="M9000 7220 c-8 -5 -51 -31 -95 -56 -44 -26 -96 -57 -115 -69 -19 -13
-73 -47 -120 -77 -47 -30 -89 -57 -95 -59 -5 -2 -35 -20 -65 -40 -30 -20 -74
-48 -97 -62 l-42 -27 27 -54 c26 -53 50 -75 61 -58 3 5 11 11 16 13 22 9 169
94 305 178 80 49 182 111 228 137 45 26 82 53 82 59 0 14 -62 124 -70 124 -3
0 -12 -4 -20 -9z"/>
<path d="M9387 7214 c-3 -5 1 -15 9 -22 16 -14 18 -5 5 17 -5 7 -11 9 -14 5z"/>
<path d="M9325 7201 c-3 -5 2 -11 10 -15 12 -4 13 -10 3 -30 -6 -14 -15 -23
-20 -20 -5 3 -2 15 8 25 9 10 12 19 6 19 -18 0 -32 -34 -21 -51 8 -12 11 -11
23 4 10 13 15 15 18 5 3 -7 5 4 6 24 1 34 -20 59 -33 39z"/>
<path d="M1527 7117 c-76 -115 -88 -142 -94 -202 -5 -44 -1 -60 21 -101 45
-83 218 -183 317 -184 81 0 160 67 228 195 27 52 22 64 -40 96 l-38 19 -58
-78 c-48 -64 -63 -78 -90 -80 -36 -4 -83 23 -153 86 l-45 40 29 57 c16 31 45
77 64 102 27 35 32 47 21 53 -34 20 -89 65 -89 72 0 25 -25 -1 -73 -75z"/>
<path d="M664 6978 c0 -81 3 -148 8 -148 5 0 5 12 2 26 -5 19 -3 25 4 20 7 -4
10 -2 7 6 -8 22 -13 78 -6 78 3 0 6 19 6 42 0 35 3 42 17 40 15 -2 17 2 12 28
-4 20 -3 30 5 30 7 0 10 -8 7 -17 -3 -10 -1 -25 4 -33 7 -11 10 -7 10 18 0 24
4 31 13 26 7 -4 9 -3 4 2 -5 5 -12 9 -15 10 -4 0 -14 3 -22 6 -57 22 -55 28
-56 -134z m36 92 c0 -5 -2 -10 -4 -10 -3 0 -8 5 -11 10 -3 6 -1 10 4 10 6 0
11 -4 11 -10z"/>
<path d="M960 7041 c0 -16 -9 -21 -42 -24 -40 -4 -39 -4 8 -4 48 0 50 2 46 24
-5 28 -12 30 -12 4z"/>
<path d="M9480 6889 c0 -5 5 -7 10 -4 6 3 10 8 10 11 0 2 -4 4 -10 4 -5 0 -10
-5 -10 -11z"/>
<path d="M9511 6864 c0 -11 3 -14 6 -6 3 7 2 16 -1 19 -3 4 -6 -2 -5 -13z"/>
<path d="M5118 6798 l-3 -63 -322 -3 -322 -2 -3 -63 -3 -62 -110 -2 c-60 -1
-122 -2 -137 -3 -27 0 -28 -1 -28 -60 l0 -60 -130 0 -129 0 -3 -67 -3 -68 -62
-3 -62 -3 -3 -57 -3 -57 -67 -3 -68 -3 0 -59 0 -60 -65 0 -65 0 0 -70 0 -70
-70 0 -70 0 0 -120 0 -120 -32 -1 c-18 -1 -37 -2 -43 -4 -5 -1 -20 -3 -32 -3
-23 -2 -23 -4 -23 -137 l0 -135 -60 0 -60 0 0 -164 c0 -185 4 -176 -81 -176
l-49 0 0 -330 0 -331 58 3 57 3 3 258 2 257 66 0 66 0 -3 183 -4 182 68 3 67
3 0 134 0 135 65 0 65 0 0 120 0 120 65 0 65 0 0 65 0 65 70 0 70 0 0 65 0 65
65 0 64 0 3 63 3 62 63 -3 62 -4 0 66 0 66 130 0 130 0 0 43 c0 90 -5 87 146
87 l134 0 0 65 0 65 265 0 265 0 0 -65 0 -65 330 0 330 0 2 -22 c1 -13 2 -32
3 -43 1 -11 3 -30 4 -42 1 -23 3 -23 136 -23 l135 0 0 -65 0 -65 65 0 65 0 0
-60 0 -60 60 0 60 0 0 -65 0 -64 68 -3 67 -3 3 -67 3 -66 52 4 c29 3 58 1 65
-4 9 -6 15 -45 19 -120 l6 -112 36 -2 c20 -1 47 -2 61 -3 24 -1 25 -3 25 -75
l0 -75 -62 -3 -63 -3 0 -184 0 -185 65 0 65 0 0 -55 0 -55 48 -2 c26 -1 81 -2
122 -2 l75 -1 3 58 3 57 59 0 60 0 0 130 0 129 -57 3 -58 3 -5 55 -5 55 -55 1
c-30 1 -61 2 -68 3 -10 1 -12 30 -8 131 l4 130 -63 0 -63 0 -5 33 c-2 17 -2
74 1 125 l5 92 -72 0 -71 0 0 60 0 60 -65 0 -65 0 0 65 0 65 -65 0 -65 0 0 65
0 65 -64 0 c-73 0 -76 3 -76 86 l0 54 -130 0 -130 0 0 65 0 65 -205 0 -205 0
0 125 0 125 -190 0 -189 0 -3 -62z m262 -108 c0 -25 3 -54 6 -66 5 -20 2 -21
-65 -23 l-71 -2 0 64 c0 35 2 66 5 68 2 3 32 5 65 5 l60 -1 0 -45z m1464
-1438 l-3 -67 -50 -3 c-86 -5 -101 14 -85 108 l6 35 68 -3 67 -4 -3 -66z"/>
<path d="M8975 6824 c-62 -30 -71 -39 -58 -56 6 -7 32 -54 57 -105 56 -110 55
-129 -10 -161 l-46 -22 -6 23 c-15 59 -97 188 -130 206 -21 11 -111 -11 -169
-41 -44 -23 -82 -77 -84 -119 -2 -22 73 -221 91 -244 4 -5 13 -27 19 -47 7
-21 16 -38 20 -38 16 0 356 142 400 167 70 40 90 62 106 116 14 48 14 52 -14
121 -33 83 -105 219 -117 223 -5 1 -31 -9 -59 -23z m-224 -273 c5 -1 59 -105
59 -114 0 -6 -65 -37 -78 -37 -6 0 -24 25 -42 56 l-31 56 21 23 c18 19 38 23
71 16z"/>
<path d="M9596 6778 c3 -5 10 -6 15 -3 13 9 11 12 -6 12 -8 0 -12 -4 -9 -9z"/>
<path d="M837 6754 c-3 -3 -22 -6 -41 -6 -20 0 -36 -3 -36 -7 0 -12 78 -12 85
0 8 12 1 22 -8 13z"/>
<path d="M9641 6748 c8 -7 20 -20 27 -28 11 -13 11 -10 1 13 -7 15 -19 27 -28
27 -13 0 -13 -2 0 -12z"/>
<path d="M733 6723 c-4 -10 -6 -88 -3 -173 l5 -155 5 173 c3 94 4 172 3 172
-1 0 -6 -8 -10 -17z"/>
<path d="M9463 6733 c9 -2 23 -2 30 0 6 3 -1 5 -18 5 -16 0 -22 -2 -12 -5z"/>
<path d="M1213 6613 c-88 -181 -85 -243 15 -309 104 -69 169 -58 290 50 34 31
67 56 73 56 25 0 16 -35 -30 -129 -55 -108 -58 -118 -38 -118 6 0 34 -10 60
-23 26 -12 49 -21 51 -19 1 2 21 42 43 89 60 126 86 205 79 234 -9 37 -59 90
-105 110 -66 30 -101 17 -187 -70 -78 -78 -101 -87 -142 -58 -33 23 -28 57 23
151 43 79 48 103 23 103 -6 0 -26 11 -44 25 -18 14 -38 25 -44 25 -6 0 -36
-52 -67 -117z"/>
<path d="M9588 6710 c-22 -30 -23 -40 -2 -40 8 0 12 -5 9 -10 -4 -6 -10 -8
-15 -5 -5 3 -12 1 -15 -5 -4 -6 -3 -10 2 -9 20 3 27 -2 13 -11 -11 -7 -12 -10
-2 -10 26 0 37 24 32 70 l-5 45 -17 -25z"/>
<path d="M534 6625 c0 -55 1 -76 3 -47 2 29 2 74 0 100 -2 26 -3 2 -3 -53z"/>
<path d="M565 6701 c3 -5 1 -12 -5 -16 -14 -9 -3 -25 17 -25 10 0 13 6 9 16
-5 13 -3 14 7 6 10 -8 13 -7 13 7 0 11 -9 18 -24 19 -13 1 -21 -2 -17 -7z"/>
<path d="M9514 6530 l1 -185 25 -2 c24 -3 24 -3 3 7 -18 7 -22 17 -21 44 1 19
5 33 9 31 4 -3 3 13 -2 36 -5 22 -8 68 -6 102 3 34 1 82 -3 107 -5 27 -7 -30
-6 -140z"/>
<path d="M9630 6686 c0 -2 8 -10 18 -17 15 -13 16 -12 3 4 -13 16 -21 21 -21
13z"/>
<path d="M9560 6531 c0 -6 4 -13 10 -16 6 -3 7 1 4 9 -7 18 -14 21 -14 7z"/>
<path d="M411 6428 c2 -31 2 -31 6 -5 4 25 8 27 48 27 25 0 45 -5 48 -12 3 -8
6 -6 6 5 1 14 -8 17 -54 17 l-55 0 1 -32z"/>
<path d="M731 6373 c-1 -21 -4 -22 -66 -17 -52 3 -65 2 -65 -10 0 -8 4 -18 10
-21 5 -3 7 0 4 9 -5 12 5 13 55 9 50 -5 62 -3 67 10 3 9 4 22 1 29 -3 7 -6 3
-6 -9z"/>
<path d="M9595 6380 c3 -5 8 -10 11 -10 2 0 4 5 4 10 0 6 -5 10 -11 10 -5 0
-7 -4 -4 -10z"/>
<path d="M527 6361 c-3 -13 -3 -20 0 -17 4 3 13 0 22 -7 14 -10 14 -10 5 3 -6
8 -13 22 -16 30 -3 10 -6 7 -11 -9z"/>
<path d="M914 6323 c-9 -21 -47 -119 -84 -218 -66 -175 -67 -180 -46 -187 11
-3 167 -56 346 -116 179 -61 328 -108 332 -104 3 4 23 50 43 102 21 52 50 128
66 169 16 40 29 77 29 82 0 10 -53 34 -96 43 -29 7 -30 6 -73 -104 -24 -61
-47 -113 -51 -115 -6 -4 -127 40 -137 49 -4 3 46 128 63 159 19 35 15 41 -41
57 -25 7 -48 17 -51 21 -15 25 -33 0 -63 -86 -18 -53 -37 -98 -42 -100 -9 -6
-139 41 -154 56 -6 6 -6 12 2 17 15 9 105 240 101 259 -2 12 -93 51 -120 53
-4 0 -15 -17 -24 -37z"/>
<path d="M493 6321 c-4 -3 -7 -13 -7 -21 1 -8 2 -21 3 -29 1 -11 5 -10 17 5 8
10 13 14 10 8 -3 -7 0 -14 8 -17 10 -4 12 0 9 14 -3 10 -12 19 -19 19 -8 0
-14 4 -14 10 0 5 7 7 15 4 8 -4 15 -2 15 3 0 11 -25 13 -37 4z"/>
<path d="M603 6294 c-3 -8 -2 -19 3 -24 5 -5 10 1 10 16 2 27 -4 31 -13 8z"/>
<path d="M9120 6255 c-344 -114 -404 -135 -411 -146 -3 -6 0 -23 7 -38 8 -14
14 -34 14 -44 0 -30 20 -59 33 -49 7 5 29 12 49 16 20 4 78 20 129 36 51 17
108 30 126 30 49 0 87 -45 109 -129 9 -36 20 -70 24 -74 10 -11 161 24 167 39
8 21 -56 178 -84 208 -14 15 -23 28 -22 29 2 2 18 9 36 17 l31 15 -25 68 c-14
37 -30 67 -37 67 -6 -1 -72 -21 -146 -45z"/>
<path d="M490 6242 c0 -7 -6 -12 -14 -12 -8 0 -17 -4 -20 -9 -4 -5 3 -7 14 -4
22 6 35 21 26 30 -3 4 -6 1 -6 -5z"/>
<path d="M406 6225 c4 -8 8 -15 10 -15 2 0 4 7 4 15 0 8 -4 15 -10 15 -5 0 -7
-7 -4 -15z"/>
<path d="M556 6231 c-3 -5 1 -11 9 -14 9 -4 12 -1 8 9 -6 16 -10 17 -17 5z"/>
<path d="M9822 6210 c0 -14 2 -19 5 -12 2 6 2 18 0 25 -3 6 -5 1 -5 -13z"/>
<path d="M4970 6160 l0 -60 -122 0 -123 0 3 -70 4 -70 -131 0 -131 0 0 -65 0
-65 -75 0 -75 0 0 -60 0 -60 -66 0 -65 0 1 -57 c1 -32 1 -64 1 -70 -1 -9 -20
-13 -61 -13 l-60 0 0 -201 0 -201 -65 4 -65 4 0 -308 0 -308 65 0 65 0 0 -60
0 -60 65 0 64 0 3 -67 c2 -52 7 -68 18 -69 8 -1 36 -2 63 -2 l47 -2 0 -60 0
-60 135 0 135 0 0 -60 0 -60 515 0 515 0 0 60 0 60 140 0 140 0 0 60 0 60 65
0 65 0 0 70 0 70 70 0 70 0 0 190 0 190 65 0 65 0 -2 177 -3 177 -30 1 c-16 1
-45 2 -62 3 l-33 2 0 195 0 195 -70 0 -69 0 -3 68 -3 67 -60 3 c-33 2 -63 9
-67 15 -4 7 -8 33 -8 60 l0 47 -60 0 -60 0 -1 43 c-1 23 -4 53 -8 67 -6 23
-11 25 -71 25 l-65 0 -3 68 -3 67 -124 0 -125 0 0 58 0 57 -205 2 -205 2 0
-59z m540 -265 l0 -65 71 0 71 0 -4 -57 -3 -58 73 -3 c79 -3 77 -1 73 -82 -2
-41 13 -53 63 -52 51 2 51 2 46 -85 l-2 -43 76 0 76 0 0 -190 0 -189 35 -7
c19 -3 46 -4 60 -2 24 5 25 4 25 -53 l0 -59 -59 0 c-56 0 -59 -1 -64 -27 -3
-15 -3 -106 0 -202 l6 -174 -81 5 -82 5 0 -34 c0 -19 5 -43 11 -55 14 -26 11
-27 -50 -35 l-51 -6 -2 -41 c-1 -23 -2 -50 -2 -61 -1 -18 -9 -20 -79 -23 -87
-3 -100 9 -50 51 15 12 39 34 54 50 15 15 33 27 41 27 31 0 38 24 38 137 0 91
3 115 16 125 54 44 94 102 94 137 0 42 -24 94 -58 126 -34 32 -42 35 -99 35
-75 0 -111 -15 -120 -49 -3 -14 -12 -32 -20 -39 -20 -20 -18 -152 2 -152 8 0
15 -6 15 -12 1 -7 14 -24 30 -38 29 -23 30 -27 30 -106 0 -76 -2 -83 -30 -113
-17 -17 -35 -31 -40 -31 -6 0 -10 -7 -10 -15 0 -8 -11 -22 -25 -31 -13 -9 -27
-24 -30 -35 -4 -10 -12 -19 -19 -19 -16 0 -26 -44 -26 -116 l0 -54 -65 0 c-56
0 -64 2 -58 16 5 14 2 16 -23 10 -16 -3 -46 -9 -66 -13 l-38 -6 0 37 c0 33 2
37 20 31 15 -5 30 2 52 24 18 17 38 31 45 31 7 0 13 5 13 10 0 6 25 36 55 66
l55 54 -2 255 c-1 140 0 256 2 257 3 2 23 16 46 31 46 31 174 161 174 177 0 5
22 10 50 10 33 0 50 -4 50 -13 0 -6 14 -18 31 -26 27 -12 32 -11 44 5 8 11 15
24 15 29 0 6 14 19 30 28 28 17 30 23 30 73 0 55 -21 114 -41 114 -5 0 -19 16
-31 36 -19 32 -24 35 -61 32 l-41 -3 3 63 c2 59 1 62 -21 62 -21 1 -114 39
-95 40 4 0 -10 18 -33 40 -22 21 -40 44 -40 50 0 5 -5 10 -10 10 -11 0 -19 6
-76 58 l-35 32 -185 0 c-101 0 -187 1 -191 3 -5 1 -9 -16 -11 -39 l-3 -41 68
-6 c37 -4 115 -7 173 -7 l105 0 113 -114 c90 -92 112 -120 112 -143 0 -16 -6
-35 -12 -42 -9 -8 -12 -43 -11 -109 2 -99 -7 -132 -32 -132 -8 0 -15 -4 -15
-10 0 -5 -6 -10 -13 -10 -7 0 -17 -10 -22 -22 -6 -13 -24 -32 -42 -43 -18 -11
-32 -25 -33 -31 0 -6 -11 -17 -25 -24 -14 -7 -25 -18 -25 -23 0 -5 -11 -18
-25 -29 l-25 -19 0 -234 c0 -258 -3 -271 -65 -314 -65 -44 -65 -44 -65 184 l0
204 -30 16 c-43 22 -107 92 -113 125 -4 15 -2 42 3 60 10 35 1 67 -27 90 -10
9 -30 30 -44 46 -14 17 -32 33 -40 36 -8 2 -19 26 -24 52 l-10 48 -100 -101
c-160 -161 -145 -135 -145 -247 l0 -98 95 -92 96 -91 2 -227 c2 -125 0 -231
-3 -236 -3 -6 -47 -9 -98 -9 l-92 2 0 62 0 62 -62 9 c-41 5 -53 9 -35 12 15 2
27 9 27 15 0 7 15 19 33 27 17 8 49 38 70 65 l38 50 -3 90 c-3 87 -4 92 -42
142 -41 55 -76 75 -129 77 l-32 1 -3 156 -3 156 26 24 c14 13 43 41 64 62 21
20 44 37 50 37 6 0 11 4 11 9 0 5 33 40 73 78 39 37 98 95 129 128 47 49 55
62 46 78 -5 11 -8 76 -6 155 l3 136 -47 -3 c-53 -3 -91 6 -83 19 3 5 6 38 6
74 l1 66 324 0 324 0 0 -65z m-940 -245 l0 -60 -44 0 c-24 0 -48 -6 -54 -13
-6 -7 -14 -40 -18 -75 -6 -57 -9 -62 -30 -62 -13 0 -24 -6 -25 -12 0 -7 -20
-29 -44 -48 -24 -19 -44 -40 -44 -46 -1 -6 -12 -16 -26 -22 -14 -6 -25 -17
-25 -23 0 -6 -9 -22 -20 -36 -17 -22 -20 -41 -20 -139 0 -88 -3 -114 -13 -114
-7 0 -25 -13 -40 -28 -24 -25 -27 -36 -27 -101 0 -72 0 -73 42 -112 39 -36 47
-39 99 -39 49 0 57 3 62 21 3 11 19 25 37 32 56 21 54 119 -5 182 -35 36 -35
37 -35 133 0 86 2 99 20 110 11 7 20 17 20 22 0 15 38 50 52 48 7 -2 14 7 16
19 2 12 13 24 26 27 13 3 34 17 47 31 13 13 32 25 42 25 9 0 17 7 17 16 0 9 9
18 20 21 10 3 22 13 25 24 5 13 18 19 53 21 l47 3 3 128 3 127 69 0 70 0 0
-105 c0 -58 -4 -105 -9 -105 -8 0 -91 -78 -91 -85 0 -7 -117 -115 -153 -143
-20 -15 -36 -31 -37 -35 0 -5 -17 -25 -39 -45 -71 -69 -72 -72 -71 -254 1 -90
1 -168 1 -175 -1 -6 -17 -28 -36 -49 -37 -39 -35 -30 -37 -176 -1 -13 3 -32 7
-43 13 -31 67 -95 80 -95 7 0 18 -7 25 -15 7 -8 23 -15 35 -15 23 0 35 -17 35
-51 0 -18 -8 -19 -119 -18 l-118 2 -4 91 c-1 50 -3 108 -3 129 l-1 37 -72 0
-72 0 -3 68 -3 67 -50 9 c-27 4 -56 10 -63 12 -10 3 -12 43 -10 176 3 156 5
173 21 176 9 2 37 25 62 50 l45 47 0 143 0 142 59 0 c68 0 71 4 71 85 0 48 2
53 24 59 14 3 27 14 31 24 3 9 23 30 45 46 22 17 40 33 40 38 0 4 25 8 55 8
l55 0 0 -60z m1274 -332 c3 -13 6 -34 6 -48 0 -23 -4 -25 -40 -25 -32 0 -40 3
-40 18 0 10 -4 15 -10 12 -5 -3 -10 2 -10 11 0 49 82 76 94 32z m-887 -251
c36 -20 65 -64 58 -88 -13 -41 4 -105 36 -135 17 -16 40 -39 51 -51 12 -12 25
-20 29 -17 16 9 20 -66 17 -331 l-3 -270 -51 -3 c-46 -3 -52 -1 -58 20 -3 13
-6 134 -6 271 0 136 -3 247 -7 247 -11 0 -156 117 -165 133 -4 8 -12 45 -18
83 l-11 69 47 43 c54 47 51 46 81 29z m-644 -151 c3 -8 3 -31 0 -50 -6 -39
-38 -55 -74 -35 -18 9 -20 17 -14 47 4 20 9 40 11 44 9 14 72 9 77 -6z m1488
-50 c9 -18 8 -31 -2 -52 -20 -41 -57 -43 -93 -5 -28 29 -28 31 -12 56 13 20
25 25 56 25 33 0 42 -5 51 -24z m-1132 -238 c35 -37 38 -56 16 -98 -10 -20
-28 -33 -55 -41 -36 -11 -43 -10 -74 12 -49 33 -61 87 -30 134 14 21 24 25 65
25 41 0 52 -5 78 -32z m-342 -300 c-3 -7 -5 -2 -5 12 0 14 2 19 5 13 2 -7 2
-19 0 -25z"/>
<path d="M5087 5521 c-37 -38 -57 -66 -49 -68 14 -5 16 -80 2 -117 -8 -22 -5
-30 21 -56 17 -16 35 -30 40 -30 5 0 9 -7 9 -15 0 -8 8 -15 18 -15 10 0 25
-11 32 -25 13 -25 15 -25 135 -25 121 0 122 0 151 29 57 56 59 62 56 138 -2
55 1 79 14 98 15 24 15 27 0 44 -9 9 -16 23 -16 29 0 7 -6 12 -13 12 -7 0 -26
13 -41 29 -29 30 -29 30 -163 33 l-134 3 -62 -64z m282 -36 c13 -4 15 -19 12
-92 -2 -51 -8 -91 -15 -95 -20 -14 -171 -9 -191 6 -35 25 -14 140 30 167 24
14 134 24 164 14z"/>
<path d="M5903 5000 c0 -25 2 -35 4 -22 2 12 2 32 0 45 -2 12 -4 2 -4 -23z"/>
<path d="M9790 6210 c-8 -5 -11 -12 -7 -16 4 -4 13 -2 19 4 15 15 7 24 -12 12z"/>
<path d="M550 6173 c0 -15 18 -35 23 -27 3 5 -1 15 -9 22 -8 7 -14 9 -14 5z"/>
<path d="M9752 6155 c-11 -13 -10 -15 4 -15 10 0 14 -5 10 -15 -4 -10 1 -15
15 -15 19 0 19 1 5 16 -18 18 -22 39 -4 28 7 -4 8 -3 4 4 -9 16 -18 15 -34 -3z"/>
<path d="M9821 6142 c-1 -8 -6 -10 -13 -6 -8 5 -7 1 2 -10 15 -19 26 -7 17 17
-4 9 -6 9 -6 -1z"/>
<path d="M530 6111 c0 -6 4 -12 8 -15 5 -3 9 1 9 9 0 8 -4 15 -9 15 -4 0 -8
-4 -8 -9z"/>
<path d="M9768 6093 c7 -3 16 -2 19 1 4 3 -2 6 -13 5 -11 0 -14 -3 -6 -6z"/>
<path d="M9815 6090 c-3 -5 -3 -10 2 -10 4 0 2 -4 -5 -9 -10 -6 -10 -10 3 -21
13 -11 15 -8 15 19 0 32 -4 38 -15 21z"/>
<path d="M9806 5998 c21 -40 18 -51 -8 -37 -13 6 -20 8 -16 4 4 -5 3 -14 -2
-20 -8 -9 -4 -11 15 -7 15 2 25 0 25 -7 0 -6 -7 -11 -17 -11 -15 0 -15 -2 0
-17 8 -10 17 -29 20 -43 2 -14 5 19 6 72 1 90 0 97 -18 95 -18 -1 -18 -3 -5
-29z"/>
<path d="M9755 5960 c3 -5 8 -10 11 -10 2 0 4 5 4 10 0 6 -5 10 -11 10 -5 0
-7 -4 -4 -10z"/>
<path d="M9680 5874 c0 -8 5 -12 10 -9 6 4 8 11 5 16 -9 14 -15 11 -15 -7z"/>
<path d="M9795 5850 c-3 -5 -1 -10 4 -10 6 0 11 5 11 10 0 6 -2 10 -4 10 -3 0
-8 -4 -11 -10z"/>
<path d="M9880 5772 c-14 -10 -26 -23 -28 -31 -3 -12 -1 -12 13 -1 13 11 19
11 33 -4 9 -10 13 -16 7 -15 -24 4 -46 -2 -40 -11 4 -6 11 -7 17 -4 7 5 9 -2
4 -20 -4 -18 -3 -25 4 -21 5 3 10 1 10 -5 0 -7 -7 -9 -16 -6 -9 3 -21 6 -27 6
-7 0 -6 4 3 10 11 7 11 10 2 10 -7 0 -11 4 -7 9 3 5 0 13 -7 17 -7 4 -10 4 -6
-1 4 -4 3 -15 -2 -25 -7 -13 -4 -20 15 -28 14 -7 25 -19 25 -27 0 -9 4 -13 10
-10 6 4 7 -1 3 -11 -5 -14 -3 -15 15 -5 15 8 22 8 25 -2 4 -7 6 -6 6 4 1 9 -9
19 -21 22 l-22 6 22 19 c26 23 29 37 6 28 -15 -6 -15 -4 0 18 19 29 21 40 5
30 -7 -4 -10 5 -7 27 4 38 -8 44 -42 21z m30 -8 c0 -8 -5 -12 -10 -9 -6 4 -8
11 -5 16 9 14 15 11 15 -7z"/>
<path d="M9776 5635 c4 -8 10 -12 15 -9 14 8 10 24 -6 24 -9 0 -12 -6 -9 -15z"/>
<path d="M9823 5635 c-10 -10 -9 -14 2 -19 8 -3 17 -1 20 5 4 5 11 7 16 4 5
-4 9 -1 9 5 0 7 -6 10 -14 7 -8 -3 -16 -2 -18 3 -2 4 -8 2 -15 -5z"/>
<path d="M9925 5640 c-3 -5 -1 -10 4 -10 6 0 11 5 11 10 0 6 -2 10 -4 10 -3 0
-8 -4 -11 -10z"/>
<path d="M9760 5588 c0 -21 0 -21 22 -2 13 10 18 12 12 4 -15 -21 -14 -52 2
-46 7 3 14 0 17 -7 3 -9 9 -9 28 0 23 11 23 12 3 12 -12 1 -24 7 -27 15 -6 16
1 26 17 26 6 0 5 -4 -3 -9 -9 -6 -10 -11 -2 -15 6 -4 11 -2 11 4 0 6 6 8 13 4
6 -4 9 -4 5 1 -4 4 0 14 10 21 16 13 16 13 0 14 -10 0 -18 -5 -18 -11 0 -5 -4
-8 -9 -5 -4 3 -25 7 -45 10 -31 4 -36 2 -36 -16z"/>
<path d="M9896 5563 c-6 -14 -5 -15 5 -6 7 7 10 15 7 18 -3 3 -9 -2 -12 -12z"/>
<path d="M3670 5450 l0 -120 -70 0 -70 0 0 -62 c0 -35 4 -69 9 -76 6 -10 37
-13 127 -10 l119 3 3 193 2 192 -60 0 -60 0 0 -120z"/>
<path d="M9905 5540 c-3 -5 -2 -10 4 -10 5 0 13 5 16 10 3 6 2 10 -4 10 -5 0
-13 -4 -16 -10z"/>
<path d="M9925 5519 c-4 -6 -13 -8 -21 -5 -8 3 -14 1 -14 -4 0 -5 8 -11 18
-13 16 -4 16 -5 0 -6 -10 0 -18 -8 -18 -16 0 -18 16 -20 24 -2 4 6 4 2 2 -10
-2 -13 1 -23 7 -23 6 0 7 -3 4 -6 -4 -4 -13 -1 -22 6 -9 7 -18 10 -22 6 -3 -3
-1 -6 5 -6 7 0 12 -7 12 -15 0 -9 6 -12 16 -8 12 4 15 0 12 -18 -1 -13 -7 -27
-13 -31 -6 -5 -3 -8 6 -8 14 0 17 14 18 85 2 83 -1 96 -14 74z"/>
<path d="M9858 5503 c7 -3 16 -2 19 1 4 3 -2 6 -13 5 -11 0 -14 -3 -6 -6z"/>
<path d="M9866 5477 c3 -10 9 -15 12 -12 3 3 0 11 -7 18 -10 9 -11 8 -5 -6z"/>
<path d="M9878 5313 c7 -3 16 -2 19 1 4 3 -2 6 -13 5 -11 0 -14 -3 -6 -6z"/>
<path d="M9800 5165 c7 -8 17 -12 22 -9 6 4 5 10 -3 15 -22 14 -33 10 -19 -6z"/>
<path d="M9866 4928 c3 -5 10 -6 15 -3 13 9 11 12 -6 12 -8 0 -12 -4 -9 -9z"/>
<path d="M9887 4703 c6 -14 14 -16 37 -7 26 10 18 23 -13 21 -18 -1 -27 -7
-24 -14z"/>
<path d="M9919 4688 c-8 -36 -7 -48 6 -48 17 0 21 35 5 45 -5 3 -10 5 -11 3z"/>
<path d="M9882 4660 c-7 -11 -8 -20 -3 -20 9 0 24 30 18 36 -1 2 -8 -6 -15
-16z"/>
<path d="M1710 4178 c0 -2 -1 -92 -3 -201 l-2 -197 63 0 62 0 0 -195 0 -195
65 0 65 0 0 -130 0 -130 60 0 60 0 0 -125 0 -125 65 0 c62 0 65 -1 66 -25 1
-14 3 -29 4 -35 1 -5 3 -26 4 -45 l1 -35 70 0 70 0 0 -125 0 -125 60 0 60 0 0
-65 0 -65 65 0 65 0 0 -60 0 -60 43 0 c82 0 87 -4 87 -76 l0 -64 60 0 60 0 0
-42 c0 -84 4 -88 81 -88 l69 0 0 -57 0 -58 125 1 125 1 0 -68 0 -69 135 0 135
0 0 -32 c0 -18 3 -50 6 -70 l7 -38 128 0 129 0 0 -65 0 -65 195 0 195 0 0 -70
0 -70 401 0 401 0 -4 138 -3 137 -127 3 -127 3 -3 67 -3 67 -203 0 -202 0 0
63 0 62 -200 0 -200 0 0 65 0 65 -130 0 -130 0 0 65 0 65 -130 0 -130 0 0 65
0 65 -65 0 -65 0 0 65 0 65 -71 0 -71 0 4 60 3 60 -62 0 -63 0 0 65 0 65 -70
0 -69 0 -3 68 c-3 67 -3 67 -33 68 -16 1 -45 2 -62 3 l-33 1 0 60 0 59 -67 3
-67 3 -1 40 c0 22 -2 77 -3 123 l-2 82 -60 0 -60 0 -1 53 c-1 28 -1 58 0 65 1
8 -17 12 -64 12 l-65 0 0 130 0 130 -65 0 -64 0 -3 137 -3 137 -62 -3 -63 -2
-2 193 -3 193 -187 3 c-104 1 -188 1 -188 0z"/>
<path d="M2352 4038 l3 -143 63 -3 62 -3 2 -152 c1 -138 2 -166 7 -204 1 -9
19 -13 56 -13 l54 0 3 -137 3 -138 68 -3 67 -3 0 -54 0 -55 65 0 65 0 0 -124
0 -123 61 -6 c33 -3 62 -7 64 -9 2 -2 6 -31 8 -63 l5 -60 71 -3 71 -3 0 -64 0
-65 60 0 60 0 0 -60 0 -60 60 0 60 0 0 -65 0 -65 130 0 130 0 0 -65 0 -65 140
0 140 0 0 -65 0 -65 196 0 196 0 -4 -65 -3 -65 203 0 202 0 0 -54 c0 -34 5
-55 13 -58 6 -2 66 -3 132 -3 l120 0 -2 115 c-1 63 -2 150 -3 193 l0 77 -125
0 -125 0 0 65 0 65 -205 0 -205 0 0 60 0 60 -130 0 -130 0 0 65 0 65 -130 0
-130 0 0 39 c0 21 -3 53 -6 70 -7 32 -8 32 -58 31 -28 -1 -56 -1 -63 -1 -7 1
-13 23 -15 59 l-3 57 -62 3 -63 3 0 53 c0 62 -5 66 -81 66 l-49 0 0 65 0 65
-65 0 -65 0 0 65 0 65 -65 0 -65 0 0 48 c0 26 -4 53 -8 59 -5 8 -33 13 -70 14
l-62 2 0 68 0 68 -67 3 -68 3 -5 134 -5 135 -57 -3 -58 -2 -2 193 -3 193 -193
3 -193 2 3 -142z"/>
<path d="M3000 4035 l0 -145 60 0 c70 0 64 17 60 -172 l-2 -118 71 0 71 0 0
-104 c0 -117 -1 -116 81 -116 l49 0 0 -65 0 -65 65 0 64 0 7 -60 7 -60 61 0
61 0 -3 -65 -4 -65 71 0 71 0 0 -65 0 -65 135 0 135 0 0 -65 0 -65 129 0 129
0 -1 -62 -1 -63 202 -3 202 -2 0 -60 0 -61 133 3 132 3 2 115 c2 63 0 148 -3
188 l-6 72 -59 0 -59 0 0 65 0 65 -270 0 -270 0 0 65 0 65 -135 0 -135 0 0 65
0 65 -65 0 -65 0 0 44 c0 71 -4 76 -71 76 l-59 0 0 70 0 70 -65 0 -64 0 -3 62
-3 62 -62 -3 -63 -2 0 105 c0 119 -1 120 -87 115 l-46 -3 -3 159 -3 160 -196
3 -195 2 0 -145z"/>
<path d="M6847 4174 c-4 -4 -7 -78 -7 -164 l0 -157 -64 1 -64 1 -7 -102 c-8
-114 -9 -116 -80 -106 l-45 6 0 -70 0 -69 -65 4 -65 4 0 -71 0 -71 -70 0 -70
0 0 -60 0 -59 -62 -3 -63 -3 -3 -62 -3 -63 -129 0 -130 0 0 -65 0 -65 -270 0
-270 0 0 -65 0 -65 -60 0 -60 0 0 -190 0 -190 120 0 120 0 0 60 0 60 208 2
207 3 -4 63 -3 62 142 0 142 0 -4 65 -4 65 133 0 133 0 0 65 0 65 70 0 70 0 0
65 0 64 63 3 62 3 3 52 3 52 62 3 62 3 3 57 c3 64 5 65 92 70 l45 3 3 123 3
122 64 0 65 0 0 135 0 135 55 0 56 0 -3 143 -3 142 -186 3 c-102 1 -188 -1
-192 -4z"/>
<path d="M7500 3985 l0 -196 -22 1 c-13 1 -42 2 -65 1 l-43 -1 0 -135 0 -135
-65 0 -65 0 0 -70 0 -70 -64 0 c-72 0 -76 -4 -76 -76 l0 -44 -60 0 -60 0 0
-65 0 -65 -70 0 -70 0 0 -65 0 -65 -42 -1 c-24 -1 -47 -2 -53 -4 -5 -1 -16 -3
-22 -3 -9 -1 -13 -20 -13 -57 l0 -55 -65 0 -65 0 -1 -47 c-2 -77 -3 -78 -29
-79 -14 -1 -44 -2 -67 -2 l-43 -2 0 -65 0 -65 -130 0 -130 0 0 -65 0 -65 -130
0 -130 0 0 -60 0 -60 -207 -2 -208 -3 0 -63 0 -62 -122 0 -123 0 0 -190 0
-190 25 -6 c13 -3 66 -4 117 -2 l93 4 3 57 3 57 204 0 203 0 6 38 c4 20 4 49
1 64 l-5 28 202 2 203 3 3 63 3 62 129 0 130 0 0 65 0 65 130 0 130 0 0 65 0
65 69 0 68 0 7 60 7 60 59 0 60 0 0 65 0 65 59 0 59 0 7 65 7 65 64 0 64 0 0
130 0 130 65 0 65 0 0 55 0 54 68 3 67 3 0 135 0 135 60 3 c33 2 62 7 65 12 3
4 5 87 5 184 l0 176 63 0 63 0 -3 143 -3 142 -192 3 -193 2 0 -195z"/>
<path d="M8155 4168 c-3 -7 -6 -94 -7 -193 l-3 -180 -60 -1 -60 -1 -6 -64 c-3
-35 -4 -97 -2 -136 l5 -73 -66 0 -66 0 0 -130 0 -130 -65 0 -65 0 0 -65 0 -65
-65 0 -65 0 0 -125 0 -124 -67 -3 -68 -3 -3 -57 -3 -57 -57 -7 c-31 -4 -60
-12 -64 -18 -4 -6 -8 -35 -8 -63 l0 -53 -60 0 -59 0 -3 -62 -3 -62 -61 3 c-69
3 -74 -3 -74 -86 l0 -43 -65 0 -65 0 0 -65 0 -65 -65 0 -65 0 0 -65 0 -65
-130 0 -130 0 0 -65 0 -64 -132 -3 -133 -3 0 -63 0 -62 -197 0 -198 0 -2 -47
c0 -27 -2 -54 -2 -61 -1 -10 -45 -14 -206 -15 l-205 -2 0 -69 0 -68 -122 1
-123 2 0 -140 0 -141 395 0 395 0 0 70 0 70 200 0 200 0 0 65 0 64 133 3 132
3 3 68 3 67 129 0 130 0 0 71 0 71 68 -2 c37 -2 93 -2 125 -1 l58 1 -2 53 -3
52 72 3 72 3 0 64 0 65 59 0 59 0 7 65 7 65 64 0 64 0 0 65 0 65 65 0 64 0 3
67 3 67 63 -3 62 -2 0 125 0 126 59 0 59 0 7 55 c3 30 4 59 0 65 -4 6 12 10
44 10 83 0 81 -4 81 136 l0 124 70 0 70 0 2 78 c1 42 3 93 4 112 1 19 3 43 3
53 1 14 11 17 61 17 l60 0 2 193 3 192 58 3 57 3 0 189 c0 105 0 193 0 198 0
4 -83 8 -185 10 -143 2 -187 0 -190 -10z"/>
<path d="M3810 3788 c-1 -2 -2 -32 -2 -68 l-2 -65 72 -3 72 -3 0 -59 0 -60
1180 0 1180 0 0 60 0 60 70 0 70 0 0 70 0 70 -1320 0 c-726 0 -1320 -1 -1320
-2z"/>
<path d="M323 5643 c1 -19 6 -28 11 -23 6 6 5 18 -2 32 -10 22 -10 21 -9 -9z"/>
<path d="M310 5590 c0 -5 5 -10 11 -10 5 0 7 5 4 10 -3 6 -8 10 -11 10 -2 0
-4 -4 -4 -10z"/>
<path d="M335 4500 c-3 -5 1 -10 10 -10 9 0 13 5 10 10 -3 6 -8 10 -10 10 -2
0 -7 -4 -10 -10z"/>
<path d="M9856 4533 c-6 -14 -5 -15 5 -6 7 7 10 15 7 18 -3 3 -9 -2 -12 -12z"/>
</g>
</svg>
